<?xml version="1.0" encoding="utf-8"?>
<!-- Generator: Adobe Illustrator 16.0.0, SVG Export Plug-In . SVG Version: 6.00 Build 0)  -->
<!DOCTYPE svg PUBLIC "-//W3C//DTD SVG 1.1//EN" "http://www.w3.org/Graphics/SVG/1.1/DTD/svg11.dtd">
<svg version="1.1" id="Layer_1" xmlns="http://www.w3.org/2000/svg" xmlns:xlink="http://www.w3.org/1999/xlink" x="0px" y="0px"
	 width="150px" height="150px" viewBox="0 0 150 150" enable-background="new 0 0 150 150" xml:space="preserve">
<g>
	<g>
		<ellipse fill="#FFFFFF" cx="75.201" cy="75.144" rx="74.709" ry="74.154"/>
		<path d="M150,75.146c0,0-0.011,0.454-0.032,1.336c-0.01,0.441-0.023,0.987-0.038,1.638c-0.014,0.325-0.006,0.677-0.035,1.053
			c-0.029,0.375-0.059,0.776-0.091,1.203c-0.217,3.407-0.771,8.419-2.449,14.587c-0.217,0.77-0.439,1.559-0.667,2.367
			c-0.266,0.798-0.538,1.616-0.818,2.453c-0.258,0.846-0.597,1.684-0.927,2.547c-0.337,0.859-0.651,1.752-1.06,2.626
			c-1.492,3.556-3.441,7.269-5.865,11.022c-2.426,3.752-5.347,7.54-8.822,11.179c-1.729,1.827-3.62,3.592-5.624,5.319
			c-0.487,0.448-1.024,0.844-1.544,1.267c-0.522,0.418-1.05,0.837-1.579,1.258c-0.542,0.409-1.102,0.796-1.657,1.198
			c-0.561,0.394-1.108,0.813-1.688,1.191c-2.314,1.521-4.718,3.023-7.295,4.327c-0.644,0.328-1.289,0.657-1.937,0.988
			c-0.665,0.301-1.331,0.603-2.001,0.905c-1.327,0.637-2.727,1.141-4.114,1.699c-0.69,0.291-1.414,0.503-2.126,0.754
			c-0.715,0.24-1.43,0.494-2.157,0.718c-0.734,0.206-1.47,0.412-2.21,0.621c-0.368,0.103-0.738,0.206-1.11,0.312
			c-0.373,0.093-0.751,0.173-1.127,0.261c-0.755,0.171-1.511,0.345-2.271,0.519c-0.762,0.169-1.536,0.28-2.309,0.423
			c-0.387,0.069-0.772,0.137-1.161,0.205l-0.583,0.103l-0.587,0.075c-0.784,0.096-1.572,0.192-2.362,0.288
			c-0.789,0.113-1.588,0.153-2.387,0.212c-0.799,0.054-1.601,0.119-2.406,0.163c-0.807,0.019-1.615,0.034-2.427,0.05
			c-0.406,0.009-0.812,0.017-1.219,0.025c-0.443-0.002-0.817-0.021-1.23-0.031c-0.808-0.025-1.619-0.053-2.432-0.079
			c-0.815-0.036-1.646-0.128-2.471-0.19c-1.66-0.103-3.298-0.366-4.953-0.581c-3.292-0.542-6.605-1.21-9.858-2.209
			c-1.645-0.439-3.243-1.049-4.868-1.599c-0.802-0.303-1.595-0.634-2.395-0.952l-1.199-0.481l-1.176-0.54
			c-6.312-2.825-12.286-6.62-17.72-11.162c-0.667-0.58-1.337-1.163-2.007-1.745c-0.662-0.592-1.289-1.224-1.938-1.833
			c-0.322-0.308-0.649-0.609-0.965-0.923l-0.925-0.965l-0.926-0.969c-0.309-0.322-0.622-0.641-0.908-0.985
			c-2.406-2.648-4.57-5.523-6.616-8.49c-0.49-0.756-0.982-1.513-1.474-2.271c-0.483-0.762-0.917-1.555-1.379-2.332
			c-0.225-0.393-0.46-0.779-0.678-1.177l-0.626-1.204l-0.626-1.207c-0.211-0.399-0.419-0.802-0.601-1.218l-1.135-2.476
			c-0.367-0.831-0.683-1.684-1.027-2.526c-0.167-0.422-0.344-0.841-0.501-1.268l-0.444-1.291l-0.445-1.292
			c-0.15-0.429-0.298-0.859-0.417-1.301l-0.77-2.624c-0.249-0.879-0.436-1.771-0.657-2.656l-0.318-1.333l-0.252-1.347
			c-0.159-0.9-0.358-1.794-0.484-2.7l-0.368-2.719c-0.07-0.452-0.111-0.908-0.145-1.364l-0.115-1.367l-0.114-1.37
			c-0.043-0.455-0.038-0.914-0.059-1.37L0,75.132l0.047-2.73c0.014-0.456,0.001-0.907,0.037-1.367l0.094-1.376l0.094-1.376
			c0.027-0.459,0.061-0.918,0.125-1.371l0.327-2.73c0.113-0.91,0.297-1.808,0.443-2.713l0.232-1.354l0.298-1.342
			c0.208-0.892,0.383-1.792,0.618-2.677l0.734-2.646c0.115-0.443,0.261-0.877,0.408-1.311l0.436-1.301l0.436-1.301
			c0.154-0.43,0.33-0.852,0.493-1.278c0.339-0.849,0.651-1.708,1.013-2.547c0.374-0.833,0.748-1.665,1.122-2.498
			c0.179-0.419,0.384-0.827,0.594-1.231l0.62-1.219l0.621-1.218c0.216-0.4,0.449-0.791,0.673-1.188
			c0.458-0.786,0.889-1.588,1.369-2.359c0.489-0.766,0.978-1.531,1.466-2.296c0.237-0.388,0.5-0.756,0.764-1.125l0.786-1.11
			l0.787-1.106l0.835-1.069c0.565-0.706,1.105-1.432,1.69-2.119c0.591-0.682,1.182-1.363,1.771-2.043
			c0.29-0.346,0.603-0.668,0.915-0.994l0.931-0.976l0.93-0.974c0.318-0.316,0.648-0.621,0.971-0.932
			c0.654-0.613,1.288-1.247,1.956-1.84c0.676-0.585,1.353-1.17,2.027-1.753C32.14,13.089,38.187,9.314,44.55,6.507l1.187-0.536
			l1.208-0.479c0.807-0.314,1.605-0.644,2.414-0.943c1.636-0.543,3.247-1.146,4.904-1.572c3.277-0.978,6.612-1.621,9.92-2.138
			c1.664-0.203,3.312-0.454,4.968-0.543c0.827-0.055,1.649-0.141,2.473-0.171c0.823-0.021,1.645-0.041,2.463-0.061l0.613-0.014
			l0.306-0.007l0.154-0.003c0.045-0.002,0.146,0.002,0.176,0.003c0.403,0.011,0.805,0.022,1.207,0.033
			c0.803,0.022,1.604,0.044,2.402,0.066c0.807,0.05,1.619,0.122,2.422,0.181c0.806,0.065,1.612,0.111,2.399,0.23
			c0.792,0.102,1.58,0.203,2.366,0.304l0.588,0.077l0.583,0.104c0.39,0.069,0.776,0.14,1.163,0.209
			c0.773,0.146,1.55,0.26,2.311,0.433c0.76,0.176,1.519,0.352,2.272,0.526c0.377,0.089,0.755,0.17,1.128,0.266
			c0.373,0.105,0.743,0.211,1.112,0.316c0.738,0.21,1.475,0.42,2.209,0.629c0.729,0.226,1.441,0.483,2.159,0.725
			c0.712,0.252,1.434,0.467,2.126,0.76c5.601,2.139,10.75,4.854,15.342,7.959c4.604,3.096,8.609,6.619,12.087,10.252
			c3.475,3.642,6.391,7.436,8.818,11.187c2.425,3.756,4.372,7.469,5.865,11.026c0.408,0.874,0.721,1.767,1.058,2.627
			c0.331,0.863,0.669,1.7,0.927,2.546c0.28,0.838,0.553,1.656,0.819,2.454c0.227,0.81,0.448,1.599,0.664,2.368
			c1.679,6.168,2.228,11.183,2.442,14.587c0.031,0.426,0.062,0.827,0.09,1.204c0.029,0.375,0.022,0.728,0.035,1.053
			c0.015,0.65,0.026,1.2,0.036,1.641c0.021,0.883,0.031,1.338,0.031,1.338V75.146z M149.82,75.144c0,0-0.013-0.454-0.037-1.334
			c-0.014-0.439-0.028-0.987-0.047-1.637c-0.013-0.324-0.008-0.675-0.04-1.05c-0.029-0.375-0.061-0.775-0.095-1.199
			c-0.229-3.392-0.792-8.397-2.563-14.513c-0.226-0.762-0.455-1.544-0.692-2.347c-0.275-0.79-0.559-1.6-0.847-2.429
			c-0.276-0.835-0.632-1.661-0.979-2.511c-0.354-0.848-0.684-1.727-1.109-2.586c-1.562-3.497-3.576-7.134-6.058-10.795
			c-2.48-3.66-5.46-7.329-8.968-10.832c-3.509-3.5-7.544-6.837-12.1-9.801c-4.563-2.947-9.628-5.54-15.12-7.574
			C95.676,4.496,89.74,3.101,83.558,2.4c-0.772-0.113-1.545-0.151-2.322-0.21c-0.777-0.054-1.552-0.12-2.338-0.166
			c-0.798-0.019-1.599-0.036-2.402-0.054c-0.402-0.009-0.805-0.019-1.208-0.027c-0.072-0.001-0.072-0.004-0.125-0.002l-0.149,0.005
			l-0.299,0.007l-0.598,0.017c-0.798,0.021-1.599,0.042-2.401,0.061c-0.802,0.029-1.604,0.112-2.41,0.166
			c-1.615,0.084-3.222,0.33-4.843,0.525c-3.225,0.503-6.475,1.126-9.67,2.078c-1.615,0.416-3.185,0.999-4.786,1.516
			c-0.789,0.288-1.57,0.604-2.359,0.905L46.466,7.68l-1.161,0.516c-6.223,2.698-12.149,6.347-17.53,10.781
			c-0.663,0.566-1.327,1.134-1.992,1.702c-0.657,0.576-1.28,1.192-1.922,1.788c-0.318,0.302-0.643,0.598-0.956,0.904l-0.916,0.948
			l-0.916,0.948c-0.307,0.315-0.616,0.629-0.9,0.966c-0.581,0.662-1.163,1.325-1.746,1.987c-0.577,0.669-1.108,1.376-1.666,2.063
			l-0.825,1.041l-0.778,1.078l-0.782,1.077c-0.261,0.359-0.524,0.716-0.76,1.094C5.611,46.331,1.089,60.653,0.983,75.155l0.05,2.701
			c0.015,0.451,0.002,0.904,0.039,1.354l0.094,1.354l0.094,1.354c0.027,0.45,0.061,0.901,0.124,1.35l0.325,2.694
			c0.112,0.896,0.296,1.783,0.44,2.676l0.231,1.337l0.295,1.322c0.206,0.881,0.379,1.769,0.613,2.641l0.728,2.61
			c0.114,0.437,0.259,0.865,0.406,1.291l0.433,1.282l0.433,1.283c0.153,0.423,0.328,0.839,0.49,1.26
			c0.337,0.836,0.646,1.683,1.005,2.509l1.112,2.459c0.178,0.414,0.383,0.814,0.591,1.214l0.615,1.199l0.614,1.2
			c0.213,0.394,0.445,0.779,0.667,1.168c0.454,0.774,0.881,1.563,1.356,2.322c0.484,0.754,0.968,1.508,1.451,2.261
			c0.234,0.381,0.496,0.743,0.756,1.107l0.778,1.091l0.78,1.088l0.829,1.05c0.562,0.692,1.095,1.406,1.676,2.08
			c0.586,0.669,1.171,1.337,1.755,2.005c2.405,2.609,4.933,5.089,7.66,7.307c5.426,4.463,11.425,8.091,17.7,10.771l1.171,0.513
			l1.191,0.455c0.794,0.299,1.582,0.612,2.378,0.897c1.612,0.51,3.194,1.086,4.822,1.49c3.219,0.929,6.49,1.527,9.731,2.007
			c1.629,0.184,3.249,0.414,4.858,0.486c0.807,0.047,1.602,0.123,2.412,0.146c0.813,0.013,1.625,0.027,2.432,0.042
			c0.396,0.007,0.828,0.022,1.191,0.02c0.398-0.013,0.796-0.025,1.194-0.036c0.795-0.024,1.588-0.048,2.378-0.071
			c0.788-0.051,1.574-0.123,2.355-0.183c0.782-0.064,1.565-0.11,2.335-0.229c6.191-0.735,12.13-2.149,17.62-4.207
			c5.492-2.049,10.555-4.656,15.116-7.613c4.551-2.976,8.588-6.314,12.094-9.818c3.507-3.507,6.481-7.181,8.963-10.842
			c2.479-3.662,4.496-7.3,6.056-10.798c1.559-3.497,2.807-6.804,3.627-9.877c1.77-6.115,2.327-11.123,2.557-14.513
			c0.031-0.425,0.063-0.825,0.093-1.199c0.033-0.375,0.026-0.727,0.04-1.051c0.018-0.65,0.032-1.197,0.044-1.639
			C149.808,75.597,149.82,75.143,149.82,75.144L149.82,75.144z"/>
	</g>
	<path fill-rule="evenodd" clip-rule="evenodd" fill="#DD1F26" d="M69.27,94.133c-9.188-0.236-7.982-8.991-12.502-14.55
		c-2.658-3.268-8.509-7.479-7.224-12.29c2.311-8.649,17.9-6.505,23.619-4.14c0.028,7.805,8.607-0.406,11.449-1.392
		c8.817-3.061,16.505-4.128,18.443,6.185c1.252,6.665,4.799,12.369-0.577,18.139c-3.459,3.712-6.585,6.547-11.258,8.019
		c-4.906,1.547-17.48,5.566-22.309,2.883"/>
	<g>
		<g>
			<path fill="#FFFFFF" d="M124.456,46.351c-3.363,2.166-6.632,4.365-10.793,5.679c-5.121,1.619-10.871-0.055-16.175,0.179
				c-11.683,0.515-25.314,14.421-20.594,17.066c2.071,0.668,5.712-3.722,9.63-5.471c4.737-2.114,9.729-1.314,10.926,4.669
				c1.392,6.956-13.865,19.48-17.399,23.401c-1.708,1.896-6.085,5.818-3.073,7.98c2.429,1.742,7.864-2.026,9.827-3.189
				c5.359-3.173,10.634-10.171,15.521-14.086c-4.602,5.449-13.255,12.649-19.256,17.217c5.25,5.658,19.983-7.072,22.837-11.615
				c-2.353,3.764-9.541,9.258-13.33,11.499c11.688,2.259,24.529-12.728,29.383-21.068c2.691-4.626,7.863-9.439,8.665-14.732
				c1.087-7.177-3.641-11.563-6.294-17.417"/>
			<path d="M124.495,46.411c-1.011,0.68-2.014,1.367-3.041,2.028c-1.021,0.667-2.075,1.285-3.15,1.873
				c-0.539,0.288-1.093,0.557-1.644,0.828c-0.565,0.237-1.117,0.509-1.697,0.719l-0.868,0.319c-0.148,0.051-0.276,0.11-0.443,0.156
				l-0.439,0.128l-0.439,0.128l-0.46,0.101c-0.308,0.068-0.616,0.136-0.923,0.175c-1.229,0.2-2.473,0.249-3.706,0.238
				c-1.233-0.018-2.46-0.098-3.678-0.186c-2.434-0.171-4.857-0.403-7.232-0.177c-1.167,0.116-2.341,0.374-3.479,0.712
				c-1.139,0.345-2.256,0.774-3.342,1.27c-2.175,0.998-4.229,2.258-6.136,3.702c-0.954,0.72-1.864,1.497-2.736,2.31
				c-0.866,0.818-1.686,1.681-2.42,2.602c-0.726,0.919-1.394,1.901-1.798,2.931c-0.202,0.509-0.32,1.04-0.282,1.487
				c0.042,0.448,0.244,0.747,0.63,0.967l-0.117-0.051c0.242,0.079,0.63,0.016,1.031-0.156c0.401-0.164,0.813-0.409,1.217-0.67
				c0.811-0.53,1.604-1.146,2.415-1.752c0.811-0.607,1.635-1.217,2.514-1.773c0.439-0.278,0.892-0.545,1.363-0.784
				c0.242-0.123,0.461-0.229,0.737-0.344l0.703-0.281c1.012-0.367,2.052-0.627,3.124-0.723c1.071-0.096,2.188-0.021,3.241,0.342
				c1.052,0.357,2.013,1.01,2.72,1.851c0.714,0.841,1.191,1.83,1.512,2.839c0.07,0.254,0.126,0.511,0.189,0.767l0.092,0.383
				l0.05,0.411c0.009,0.129,0.037,0.238,0.032,0.385l-0.006,0.43c0.006,0.295-0.05,0.551-0.085,0.82
				c-0.177,1.061-0.562,2.043-1.016,2.972c-0.452,0.932-0.99,1.809-1.567,2.649c-0.572,0.845-1.19,1.655-1.831,2.442
				c-1.278,1.58-2.651,3.069-4.06,4.52c-1.41,1.448-2.863,2.853-4.32,4.248c-1.454,1.397-2.948,2.759-4.356,4.184
				c-1.349,1.482-2.862,2.86-3.91,4.529c-0.252,0.419-0.479,0.855-0.607,1.312c-0.066,0.228-0.099,0.46-0.11,0.688
				c0.002,0.228,0.028,0.454,0.103,0.666c0.144,0.419,0.474,0.786,0.835,1.045c0.229,0.146,0.396,0.232,0.625,0.297
				c0.221,0.064,0.454,0.1,0.691,0.107c0.955,0.025,1.925-0.273,2.842-0.639c0.921-0.374,1.81-0.839,2.681-1.335
				c0.872-0.497,1.717-1.035,2.582-1.569c0.416-0.26,0.855-0.534,1.266-0.813c0.398-0.296,0.811-0.567,1.194-0.892
				c1.565-1.245,3.018-2.633,4.432-4.059c1.415-1.427,2.792-2.896,4.202-4.344c1.413-1.443,2.849-2.878,4.428-4.185l0.617,0.624
				l-1.077,1.224c-0.364,0.401-0.706,0.828-1.09,1.209l-1.131,1.17c-0.381,0.386-0.747,0.786-1.143,1.155l-1.171,1.126
				c-0.392,0.372-0.771,0.761-1.177,1.118l-2.406,2.178l-2.448,2.129l-2.486,2.084l-2.519,2.047c-0.848,0.673-1.7,1.339-2.553,2.006
				l0.083-0.948c0.36,0.337,0.735,0.661,1.199,0.837c0.441,0.216,0.951,0.293,1.459,0.352c0.263-0.006,0.521,0.019,0.786-0.006
				c0.267-0.031,0.53-0.033,0.797-0.093c0.267-0.05,0.533-0.088,0.798-0.165c0.266-0.069,0.532-0.133,0.795-0.228
				c0.525-0.163,1.047-0.369,1.56-0.592c0.516-0.222,1.02-0.474,1.522-0.729c0.496-0.268,0.991-0.543,1.476-0.84
				c0.483-0.296,0.967-0.595,1.438-0.915c0.475-0.313,0.936-0.647,1.399-0.979c0.458-0.34,0.913-0.683,1.36-1.037
				c0.446-0.354,0.891-0.713,1.324-1.084c0.437-0.366,0.863-0.747,1.286-1.128c0.422-0.384,0.837-0.775,1.244-1.172
				c0.404-0.398,0.802-0.805,1.189-1.218c0.385-0.412,0.76-0.835,1.115-1.266c0.352-0.431,0.687-0.871,0.971-1.314l1.284,0.793
				c-0.223,0.321-0.431,0.664-0.671,0.963c-0.238,0.302-0.471,0.615-0.727,0.896c-0.251,0.287-0.5,0.575-0.764,0.845
				c-0.26,0.274-0.52,0.551-0.791,0.811c-0.268,0.264-0.534,0.531-0.812,0.782c-0.276,0.253-0.546,0.517-0.829,0.76
				c-0.557,0.501-1.126,0.984-1.699,1.465c-0.578,0.474-1.158,0.943-1.749,1.398c-0.293,0.232-0.595,0.453-0.89,0.679
				c-0.298,0.228-0.601,0.444-0.902,0.665c-0.604,0.439-1.217,0.868-1.839,1.284c-0.31,0.213-0.628,0.412-0.944,0.615
				c-0.315,0.204-0.645,0.395-0.966,0.594l-0.245-1.396c1.43,0.279,2.914,0.281,4.373,0.055c1.461-0.224,2.896-0.669,4.275-1.256
				c2.763-1.184,5.308-2.906,7.659-4.84c2.349-1.944,4.522-4.116,6.522-6.436c1.998-2.32,3.85-4.776,5.469-7.367l0.603-0.988
				c0.205-0.326,0.4-0.654,0.629-0.984c0.221-0.331,0.444-0.659,0.674-0.972c0.227-0.318,0.457-0.632,0.691-0.942
				c0.932-1.246,1.89-2.457,2.796-3.695c0.907-1.237,1.769-2.501,2.476-3.838c0.712-1.332,1.236-2.761,1.417-4.232l0.067-0.574
				c0.023-0.191,0.047-0.384,0.043-0.566c0.001-0.372,0.029-0.74,0.011-1.114c-0.03-0.374-0.046-0.75-0.086-1.124
				c-0.062-0.371-0.113-0.745-0.184-1.115c-0.306-1.479-0.868-2.908-1.543-4.281c-0.676-1.375-1.461-2.705-2.227-4.047
				c-0.768-1.341-1.511-2.706-2.124-4.127l0.13-0.059c1.33,2.785,3.168,5.278,4.632,8.027c0.728,1.372,1.354,2.822,1.723,4.356
				c0.085,0.384,0.151,0.773,0.227,1.16c0.057,0.391,0.081,0.786,0.122,1.179c0.026,0.396,0.009,0.798,0.014,1.198
				c0.007,0.204-0.012,0.396-0.033,0.586l-0.054,0.576c-0.158,1.597-0.687,3.125-1.396,4.53c-0.705,1.411-1.561,2.727-2.452,4.002
				c-0.892,1.276-1.825,2.513-2.717,3.764c-0.447,0.622-0.883,1.259-1.289,1.886c-0.208,0.307-0.404,0.646-0.604,0.976l-0.591,0.997
				c-1.62,2.675-3.466,5.195-5.471,7.591c-2.005,2.393-4.193,4.642-6.589,6.68c-2.393,2.033-5.019,3.855-7.96,5.133
				c-1.47,0.637-3.018,1.131-4.628,1.389c-1.606,0.259-3.274,0.271-4.898-0.036l-1.899-0.361l1.655-1.035
				c0.307-0.19,0.616-0.372,0.92-0.572c0.304-0.198,0.609-0.394,0.91-0.6c0.604-0.404,1.203-0.823,1.794-1.251
				c0.295-0.215,0.592-0.428,0.882-0.648c0.292-0.224,0.586-0.438,0.873-0.664c0.578-0.445,1.146-0.903,1.711-1.365
				c0.56-0.469,1.114-0.938,1.656-1.426c0.276-0.236,0.535-0.49,0.804-0.734c0.269-0.243,0.522-0.5,0.782-0.753
				c0.262-0.249,0.508-0.512,0.754-0.772c0.253-0.257,0.486-0.525,0.721-0.794c0.242-0.265,0.449-0.545,0.671-0.819
				c0.226-0.273,0.398-0.563,0.601-0.844l1.286,0.794c-0.343,0.527-0.713,1.004-1.096,1.465c-0.384,0.459-0.782,0.898-1.188,1.328
				c-0.406,0.427-0.822,0.845-1.245,1.255c-0.425,0.407-0.854,0.807-1.291,1.198c-0.439,0.39-0.882,0.776-1.335,1.151
				c-0.448,0.378-0.908,0.744-1.371,1.104c-0.463,0.361-0.935,0.712-1.41,1.058c-0.481,0.34-0.96,0.68-1.455,1.001
				c-0.489,0.329-0.994,0.637-1.502,0.941c-0.507,0.304-1.027,0.588-1.553,0.865c-0.531,0.269-1.067,0.531-1.62,0.762
				c-0.552,0.234-1.113,0.451-1.696,0.629c-0.285,0.1-0.584,0.168-0.882,0.243c-0.293,0.084-0.602,0.128-0.906,0.182
				c-0.302,0.063-0.622,0.069-0.932,0.1c-0.313,0.026-0.639-0.001-0.956-0.003c-0.641-0.071-1.297-0.18-1.901-0.475
				c-0.623-0.25-1.149-0.689-1.619-1.151l-0.505-0.498l0.588-0.45l2.56-1.961l2.53-2l2.501-2.037l2.461-2.081l2.418-2.131
				c0.405-0.352,0.79-0.725,1.187-1.086l1.182-1.093c0.4-0.357,0.77-0.744,1.153-1.119l1.14-1.132
				c0.39-0.368,0.729-0.778,1.097-1.167l1.083-1.181l0.616,0.624c-1.555,1.236-3.009,2.622-4.438,4.034
				c-1.429,1.415-2.833,2.862-4.283,4.271s-2.94,2.788-4.558,4.027c-0.395,0.317-0.827,0.603-1.241,0.903
				c-0.425,0.287-0.845,0.543-1.285,0.816c-0.856,0.52-1.719,1.062-2.604,1.558c-0.886,0.498-1.795,0.966-2.75,1.346
				c-0.953,0.37-1.963,0.687-3.041,0.652c-0.268-0.008-0.539-0.051-0.802-0.13c-0.26-0.067-0.543-0.223-0.736-0.352
				c-0.455-0.326-0.824-0.749-1.012-1.283c-0.092-0.265-0.122-0.543-0.121-0.815c0.012-0.272,0.055-0.541,0.13-0.796
				c0.144-0.512,0.383-0.979,0.648-1.42c0.538-0.881,1.203-1.659,1.882-2.411l2.066-2.214c1.418-1.449,2.881-2.833,4.317-4.246
				c1.44-1.407,2.856-2.837,4.223-4.309c1.367-1.471,2.693-2.979,3.916-4.558c0.612-0.789,1.199-1.595,1.736-2.429
				c0.542-0.829,1.042-1.685,1.449-2.572c0.409-0.883,0.74-1.802,0.873-2.728c0.023-0.229,0.07-0.469,0.056-0.678l0.004-0.323
				c0.006-0.104-0.027-0.243-0.038-0.363l-0.045-0.336l-0.093-0.347c-0.062-0.23-0.118-0.463-0.186-0.691
				c-0.308-0.898-0.744-1.739-1.351-2.423c-0.604-0.686-1.384-1.189-2.253-1.466c-1.748-0.576-3.76-0.234-5.517,0.42
				c-1.831,0.683-3.406,1.837-5.016,3.047c-0.805,0.604-1.604,1.229-2.482,1.807c-0.443,0.286-0.897,0.568-1.433,0.785
				c-0.264,0.11-0.555,0.202-0.876,0.25c-0.319,0.049-0.685,0.047-1.045-0.068l-0.061-0.02l-0.056-0.031
				c-0.337-0.19-0.662-0.468-0.889-0.822c-0.229-0.353-0.347-0.76-0.378-1.14c-0.056-0.766,0.132-1.442,0.373-2.055
				c0.494-1.228,1.225-2.267,2.002-3.246c1.579-1.942,3.429-3.61,5.416-5.083c1.989-1.47,4.125-2.747,6.394-3.756
				c1.136-0.503,2.304-0.938,3.507-1.27c1.204-0.332,2.429-0.576,3.693-0.676c1.246-0.094,2.491-0.065,3.719,0.013
				c1.229,0.078,2.446,0.201,3.659,0.313c1.213,0.113,2.42,0.217,3.625,0.259c1.206,0.039,2.41,0.002,3.596-0.146
				c0.3-0.029,0.588-0.083,0.879-0.138l0.436-0.079l0.443-0.114l0.441-0.114c0.128-0.03,0.282-0.09,0.423-0.134l0.857-0.285
				c0.575-0.187,1.126-0.437,1.689-0.652c0.551-0.249,1.103-0.496,1.646-0.763c1.081-0.546,2.145-1.129,3.187-1.756
				c1.05-0.613,2.083-1.259,3.119-1.895L124.495,46.411z"/>
		</g>
		<g>
			<path fill="#FFFFFF" d="M27.264,46.351c3.363,2.166,6.631,4.365,10.793,5.679c5.122,1.619,10.871-0.055,16.176,0.179
				c11.682,0.515,25.314,14.421,20.594,17.066c-2.072,0.668-5.713-3.722-9.63-5.471c-4.736-2.114-9.729-1.314-10.925,4.669
				c-1.393,6.956,13.865,19.48,17.398,23.401c1.708,1.896,6.086,5.818,3.074,7.98c-2.429,1.742-7.865-2.026-9.827-3.189
				c-5.359-3.173-10.634-10.171-15.52-14.086c4.6,5.449,13.255,12.649,19.256,17.217c-5.249,5.658-19.983-7.072-22.838-11.615
				c2.353,3.764,9.542,9.258,13.331,11.499c-11.689,2.259-24.53-12.728-29.382-21.068c-2.692-4.626-8.523-9.381-8.666-14.732
				c-0.187-7.09,2.751-12.819,6.32-18.27"/>
			<path d="M27.303,46.292c2.076,1.272,4.137,2.572,6.306,3.652c1.083,0.541,2.196,1.019,3.334,1.419
				c0.284,0.102,0.57,0.198,0.858,0.285c0.286,0.093,0.571,0.173,0.867,0.251c0.568,0.146,1.164,0.252,1.755,0.327
				c1.187,0.146,2.39,0.182,3.596,0.142c1.206-0.041,2.413-0.144,3.625-0.258c1.213-0.114,2.431-0.237,3.66-0.315
				c1.229-0.076,2.473-0.111,3.719-0.013c1.264,0.099,2.488,0.344,3.693,0.675c1.203,0.333,2.372,0.768,3.507,1.271
				c2.269,1.01,4.405,2.286,6.395,3.755c1.986,1.475,3.836,3.141,5.415,5.084c0.778,0.979,1.508,2.018,2.002,3.246
				c0.24,0.612,0.428,1.29,0.374,2.055c-0.031,0.38-0.148,0.787-0.378,1.14c-0.227,0.354-0.552,0.632-0.889,0.822l-0.055,0.03
				l-0.062,0.021c-0.36,0.116-0.727,0.118-1.046,0.071c-0.322-0.05-0.609-0.144-0.876-0.252c-0.532-0.22-0.991-0.5-1.433-0.786
				c-0.877-0.579-1.676-1.205-2.48-1.809c-1.604-1.208-3.199-2.371-5.004-3.044c-0.895-0.342-1.833-0.589-2.773-0.678
				c-0.939-0.093-1.887-0.03-2.755,0.253c-0.87,0.275-1.651,0.778-2.258,1.46c-0.615,0.677-1.046,1.528-1.345,2.427
				c-0.136,0.451-0.276,0.925-0.335,1.386c-0.051,0.412-0.041,0.897,0.027,1.352c0.135,0.926,0.46,1.848,0.872,2.73
				c0.832,1.771,1.971,3.423,3.188,5c1.225,1.579,2.549,3.088,3.917,4.559c1.367,1.471,2.783,2.902,4.224,4.309
				c1.437,1.413,2.899,2.798,4.318,4.244l2.066,2.217c0.68,0.752,1.344,1.529,1.883,2.41c0.267,0.44,0.503,0.909,0.649,1.421
				c0.148,0.505,0.193,1.077,0.01,1.611c-0.375,1.062-1.463,1.76-2.55,1.768c-1.078,0.035-2.088-0.284-3.042-0.653
				c-0.955-0.38-1.863-0.847-2.75-1.345c-0.886-0.496-1.747-1.04-2.604-1.559l-0.65-0.394c-0.214-0.141-0.434-0.278-0.643-0.425
				c-0.421-0.287-0.832-0.589-1.237-0.898c-1.619-1.238-3.105-2.622-4.556-4.03c-1.449-1.408-2.854-2.857-4.283-4.272
				s-2.881-2.803-4.44-4.034l0.617-0.624c0.357,0.397,0.705,0.801,1.069,1.19c0.37,0.387,0.727,0.782,1.106,1.161
				c0.378,0.379,0.748,0.764,1.136,1.135c0.385,0.372,0.764,0.75,1.158,1.115c0.392,0.364,0.778,0.738,1.177,1.095l1.192,1.083
				c0.798,0.72,1.605,1.427,2.419,2.129c1.627,1.403,3.285,2.774,4.961,4.12c0.839,0.672,1.683,1.339,2.531,2
				c0.849,0.66,1.705,1.311,2.562,1.959l0.564,0.428l-0.483,0.521c-0.448,0.483-1.002,0.888-1.612,1.163
				c-0.611,0.27-1.264,0.416-1.906,0.465c-1.288,0.084-2.521-0.161-3.678-0.519c-1.16-0.362-2.256-0.85-3.314-1.394
				c-1.056-0.548-2.07-1.157-3.055-1.805c-1.968-1.301-3.819-2.752-5.571-4.316c-0.875-0.784-1.724-1.599-2.538-2.454
				c-0.407-0.43-0.804-0.869-1.188-1.327c-0.383-0.46-0.754-0.935-1.095-1.467l1.286-0.794c0.366,0.573,0.804,1.127,1.269,1.664
				c0.465,0.538,0.962,1.06,1.476,1.567c1.028,1.016,2.122,1.981,3.244,2.911c1.125,0.929,2.282,1.822,3.465,2.679
				c1.184,0.854,2.393,1.68,3.626,2.422l1.7,1.025l-1.945,0.371c-1.641,0.312-3.329,0.299-4.953,0.031
				c-1.626-0.265-3.191-0.773-4.672-1.423c-2.966-1.312-5.614-3.163-8.024-5.229c-2.415-2.068-4.607-4.362-6.629-6.787
				c-2.017-2.43-3.871-4.99-5.484-7.712l-0.294-0.506c-0.1-0.165-0.199-0.339-0.299-0.493c-0.196-0.316-0.41-0.639-0.629-0.952
				c-0.436-0.631-0.897-1.252-1.37-1.869c-0.945-1.233-1.933-2.453-2.86-3.732c-0.924-1.279-1.801-2.618-2.449-4.093
				c-0.321-0.736-0.587-1.506-0.738-2.307c-0.073-0.399-0.132-0.804-0.145-1.212c-0.004-0.105-0.014-0.196-0.012-0.313l0.002-0.292
				l0.007-0.584c0.036-1.581,0.228-3.165,0.576-4.701c0.345-1.54,0.836-3.042,1.438-4.494c1.204-2.909,2.837-5.604,4.601-8.185
				l0.12,0.078c-1.656,2.645-3.196,5.373-4.298,8.272c-0.551,1.448-0.988,2.936-1.28,4.45c-0.291,1.516-0.442,3.045-0.445,4.581
				l0.006,0.585l0.003,0.292c0,0.078,0.012,0.181,0.017,0.271c0.02,0.371,0.083,0.739,0.157,1.104
				c0.155,0.73,0.417,1.44,0.734,2.126c0.641,1.374,1.513,2.648,2.447,3.88c0.936,1.232,1.944,2.423,2.928,3.649
				c0.492,0.614,0.979,1.236,1.444,1.882c0.232,0.324,0.456,0.649,0.677,0.995c0.114,0.173,0.21,0.337,0.313,0.504l0.303,0.502
				c1.61,2.635,3.47,5.129,5.48,7.484c2.016,2.351,4.195,4.566,6.567,6.54c1.185,0.988,2.418,1.913,3.707,2.746
				c1.285,0.837,2.625,1.584,4.018,2.187s2.844,1.059,4.32,1.291c1.476,0.23,2.976,0.23,4.423-0.053l-0.246,1.396
				c-1.305-0.771-2.54-1.614-3.749-2.491c-1.209-0.878-2.39-1.792-3.542-2.744c-1.149-0.954-2.271-1.945-3.342-3.005
				c-1.064-1.064-2.1-2.175-2.95-3.516l1.285-0.793c0.568,0.89,1.32,1.758,2.085,2.582c0.774,0.826,1.59,1.623,2.434,2.39
				c1.689,1.53,3.482,2.959,5.371,4.229c0.946,0.633,1.917,1.226,2.915,1.753c1,0.525,2.028,0.987,3.083,1.326
				c1.051,0.335,2.138,0.548,3.175,0.485c0.516-0.035,1.011-0.146,1.464-0.341c0.449-0.2,0.85-0.487,1.193-0.848l0.082,0.948
				c-3.425-2.649-6.765-5.398-10.006-8.264c-0.809-0.72-1.613-1.443-2.408-2.177c-0.4-0.363-0.788-0.742-1.182-1.113
				c-0.395-0.37-0.777-0.755-1.165-1.131c-0.39-0.376-0.766-0.768-1.147-1.151c-0.385-0.381-0.751-0.781-1.127-1.174
				c-0.377-0.39-0.732-0.801-1.099-1.201c-0.362-0.404-0.71-0.824-1.065-1.234l0.618-0.624c1.583,1.302,3.017,2.739,4.428,4.185
				c1.41,1.448,2.787,2.918,4.201,4.345c1.417,1.426,2.863,2.82,4.431,4.062c0.791,0.624,1.59,1.188,2.462,1.702
				c0.867,0.532,1.711,1.072,2.583,1.568c0.871,0.497,1.76,0.962,2.681,1.335c0.917,0.364,1.887,0.665,2.842,0.639
				c0.476-0.018,0.93-0.133,1.31-0.402c0.374-0.266,0.699-0.626,0.84-1.049c0.149-0.424,0.123-0.899-0.008-1.354
				c-0.13-0.458-0.352-0.896-0.608-1.312c-1.047-1.669-2.563-3.046-3.91-4.531c-1.41-1.424-2.904-2.784-4.359-4.183
				c-2.912-2.791-5.816-5.614-8.381-8.767c-1.274-1.581-2.481-3.236-3.401-5.092c-0.456-0.928-0.836-1.913-1.016-2.974
				c-0.086-0.537-0.122-1.062-0.06-1.649c0.062-0.537,0.198-1.034,0.341-1.547c0.311-1.01,0.782-2.006,1.505-2.842
				c0.712-0.841,1.674-1.492,2.726-1.847c1.053-0.359,2.169-0.438,3.24-0.345c1.077,0.091,2.115,0.353,3.111,0.72l0.377,0.144
				l0.349,0.146c0.256,0.108,0.489,0.22,0.728,0.34c0.473,0.24,0.923,0.506,1.362,0.785c0.878,0.558,1.704,1.166,2.515,1.774
				c0.81,0.605,1.604,1.222,2.414,1.752c0.404,0.263,0.816,0.504,1.218,0.671c0.401,0.171,0.79,0.237,1.031,0.155l-0.117,0.051
				c0.385-0.22,0.586-0.519,0.63-0.967c0.037-0.447-0.081-0.978-0.283-1.487c-0.405-1.03-1.072-2.013-1.798-2.931
				c-0.734-0.921-1.554-1.785-2.42-2.602c-0.872-0.813-1.781-1.589-2.736-2.31c-1.906-1.444-3.961-2.704-6.134-3.702
				c-1.087-0.497-2.204-0.925-3.344-1.27c-1.138-0.338-2.312-0.596-3.479-0.712c-1.184-0.119-2.387-0.11-3.594-0.06
				c-1.207,0.051-2.419,0.148-3.638,0.237c-1.219,0.089-2.445,0.17-3.679,0.186c-1.232,0.011-2.476-0.036-3.705-0.233
				c-0.617-0.099-1.22-0.226-1.828-0.402c-0.29-0.086-0.59-0.181-0.879-0.286c-0.292-0.099-0.581-0.207-0.868-0.32
				c-1.147-0.445-2.262-0.967-3.34-1.549c-2.164-1.156-4.175-2.54-6.19-3.903L27.303,46.292z"/>
		</g>
	</g>
	<path d="M115.664,114.375c0,0-0.251,0.239-0.735,0.7c-0.243,0.229-0.545,0.517-0.903,0.857c-0.351,0.349-0.787,0.722-1.283,1.144
		c-1.956,1.715-4.955,4.104-9.172,6.547c-4.212,2.417-9.656,4.928-16.331,6.438c-3.328,0.764-6.95,1.272-10.795,1.411
		c-1.923,0.077-3.899,0.037-5.92-0.086c-0.507-0.015-1.011-0.084-1.522-0.128c-0.51-0.052-1.022-0.103-1.538-0.155
		c-1.024-0.149-2.062-0.302-3.105-0.483c-2.077-0.407-4.197-0.867-6.3-1.538c-0.526-0.165-1.055-0.332-1.585-0.5
		c-0.522-0.191-1.047-0.385-1.575-0.579c-1.063-0.365-2.094-0.84-3.149-1.281c-0.532-0.211-1.039-0.481-1.561-0.726
		c-0.518-0.254-1.043-0.498-1.556-0.77c-0.508-0.283-1.018-0.565-1.53-0.85l-0.769-0.428l-0.751-0.465
		c-0.501-0.312-1.003-0.625-1.508-0.938c-0.502-0.317-0.982-0.673-1.477-1.01l-0.738-0.513l-0.371-0.257l-0.357-0.276
		c-0.475-0.37-0.951-0.741-1.43-1.114c-0.486-0.363-0.938-0.771-1.399-1.171c-0.46-0.4-0.927-0.797-1.383-1.205
		c-0.443-0.425-0.887-0.852-1.333-1.279l-0.669-0.643c-0.011-0.009-0.08-0.075-0.101-0.1l-0.078-0.082l-0.156-0.167l-0.313-0.333
		c-0.416-0.446-0.832-0.894-1.25-1.342c-0.415-0.456-0.814-0.959-1.222-1.438c-0.837-0.957-1.57-1.979-2.338-2.987
		c-1.466-2.065-2.874-4.207-4.068-6.495c-0.639-1.119-1.161-2.308-1.729-3.475c-0.263-0.595-0.505-1.198-0.759-1.799l-0.376-0.903
		l-0.334-0.922c-3.625-9.819-4.587-20.924-2.411-31.643C21.935,52.682,27.23,42.417,35.121,34.4l1.487-1.446
		c0.482-0.49,1.015-0.952,1.548-1.417l0.795-0.699c0.264-0.235,0.53-0.466,0.808-0.679l1.648-1.307
		c0.552-0.434,1.137-0.824,1.704-1.237l0.857-0.611l0.884-0.57c0.594-0.374,1.175-0.77,1.781-1.125l1.827-1.046
		c2.474-1.324,5.018-2.523,7.651-3.481c2.636-0.941,5.322-1.739,8.052-2.296c2.73-0.547,5.486-0.938,8.247-1.094
		c0.688-0.059,1.38-0.051,2.068-0.08l1.033-0.03c0.344-0.001,0.688,0.009,1.032,0.015c0.688,0.018,1.375,0.013,2.059,0.049
		c0.685,0.044,1.369,0.089,2.05,0.134c5.452,0.454,10.781,1.645,15.757,3.53l0.935,0.345l0.917,0.387
		c0.607,0.262,1.22,0.511,1.822,0.782c1.184,0.581,2.384,1.118,3.513,1.777c2.308,1.231,4.462,2.672,6.534,4.17
		c1.011,0.782,2.039,1.533,2.986,2.373c0.478,0.414,0.968,0.809,1.431,1.234c0.455,0.432,0.911,0.861,1.365,1.29l0.339,0.322
		l0.168,0.162l0.085,0.08c0.023,0.021,0.099,0.101,0.104,0.107l0.626,0.66c0.417,0.439,0.833,0.877,1.247,1.314
		c0.408,0.461,0.812,0.94,1.214,1.407c0.402,0.471,0.814,0.933,1.175,1.42c0.371,0.48,0.742,0.958,1.11,1.437l0.276,0.358
		l0.258,0.37l0.514,0.739c0.337,0.494,0.693,0.974,1.01,1.476c0.314,0.505,0.628,1.007,0.939,1.507l0.463,0.751l0.429,0.768
		c0.284,0.511,0.566,1.02,0.848,1.528c0.27,0.513,0.515,1.037,0.768,1.553c0.245,0.52,0.517,1.025,0.729,1.556
		c0.439,1.052,0.914,2.079,1.276,3.138c0.194,0.525,0.387,1.048,0.577,1.568c0.168,0.528,0.333,1.055,0.498,1.578
		c0.667,2.093,1.127,4.201,1.531,6.267c0.775,4.143,0.97,8.193,0.835,12.009c-0.146,3.818-0.667,7.415-1.435,10.72
		c-1.527,6.626-4.056,12.033-6.496,16.213c-2.463,4.185-4.878,7.162-6.604,9.097c-0.426,0.491-0.802,0.924-1.154,1.273
		c-0.345,0.355-0.635,0.654-0.867,0.896c-0.468,0.483-0.708,0.732-0.708,0.732L115.664,114.375z M115.49,114.196
		c0,0,0.236-0.25,0.695-0.735c0.229-0.242,0.517-0.544,0.855-0.9c0.349-0.351,0.72-0.786,1.137-1.278
		c1.699-1.939,4.093-4.917,6.41-9.141c1.204-2.082,2.3-4.518,3.325-7.217c1.031-2.701,1.88-5.719,2.481-8.99
		c0.603-3.271,0.949-6.801,0.92-10.518c-0.027-3.713-0.438-7.609-1.298-11.575c-0.453-1.978-0.977-3.982-1.664-5.975
		c-0.17-0.5-0.338-1-0.51-1.505c-0.193-0.494-0.39-0.991-0.586-1.491c-0.368-1.008-0.847-1.981-1.286-2.979
		c-1.842-3.957-4.24-7.814-7.151-11.427c-0.351-0.467-0.736-0.889-1.116-1.325c-0.381-0.434-0.763-0.871-1.147-1.308
		c-0.419-0.433-0.837-0.868-1.26-1.304l-0.632-0.654l-0.628-0.589c-0.434-0.409-0.866-0.818-1.304-1.229
		c-0.439-0.406-0.909-0.784-1.363-1.179c-0.899-0.804-1.881-1.519-2.843-2.268c-1.976-1.429-4.027-2.808-6.226-3.983
		c-1.077-0.628-2.219-1.146-3.339-1.718c-0.571-0.264-1.152-0.508-1.729-0.765l-0.871-0.38l-0.889-0.339
		c-4.729-1.854-9.812-3.052-15.031-3.547c-0.653-0.05-1.308-0.101-1.964-0.151c-0.656-0.042-1.315-0.045-1.974-0.069
		c-0.33-0.009-0.66-0.023-0.99-0.026l-0.992,0.019c-0.66,0.02-1.324,0.004-1.985,0.053c-2.652,0.117-5.3,0.473-7.936,0.95
		c-10.527,2.009-20.631,7.107-28.531,14.74c-1.916,1.9-3.783,3.938-5.445,6.099c-0.426,0.535-0.807,1.102-1.212,1.652l-0.601,0.83
		l-0.558,0.858c-0.366,0.576-0.754,1.139-1.103,1.725l-1.025,1.771c-1.289,2.4-2.458,4.866-3.386,7.418
		c-0.129,0.314-0.237,0.636-0.339,0.958l-0.317,0.966l-0.317,0.965c-0.098,0.324-0.181,0.652-0.272,0.977
		c-0.173,0.653-0.371,1.301-0.524,1.958c-0.147,0.659-0.294,1.317-0.441,1.974c-1.064,5.283-1.349,10.68-0.826,15.931
		c0.513,5.252,1.813,10.35,3.75,15.077l0.355,0.889l0.396,0.869c0.268,0.577,0.523,1.158,0.798,1.729
		c0.593,1.117,1.135,2.256,1.792,3.325c1.23,2.184,2.664,4.217,4.145,6.169c0.774,0.951,1.518,1.924,2.338,2.798
		c0.406,0.447,0.786,0.898,1.209,1.338c0.43,0.437,0.859,0.872,1.288,1.307l0.319,0.328l0.159,0.162l0.08,0.082
		c0.03,0.033,0.02,0.017,0.062,0.059l0.656,0.608c0.436,0.404,0.871,0.808,1.305,1.21c0.448,0.385,0.904,0.759,1.353,1.139
		c0.452,0.374,0.891,0.762,1.365,1.101c3.683,2.864,7.591,5.229,11.596,7.04c1.01,0.433,1.995,0.903,3.013,1.265
		c0.505,0.193,1.008,0.386,1.508,0.576c0.509,0.167,1.016,0.333,1.52,0.499c2.014,0.674,4.037,1.189,6.034,1.634
		c4.003,0.837,7.93,1.243,11.675,1.264c3.746,0.025,7.303-0.328,10.6-0.926c3.298-0.6,6.338-1.441,9.061-2.467
		c2.72-1.02,5.173-2.109,7.272-3.306c4.254-2.302,7.254-4.684,9.202-6.371c0.495-0.416,0.932-0.784,1.286-1.131
		c0.36-0.338,0.663-0.622,0.908-0.852C115.239,114.431,115.491,114.195,115.49,114.196L115.49,114.196z"/>
	<path fill="none" d="M134.168,72.447c1.523,32.676-23.54,60.371-55.981,61.861c-32.44,1.49-59.972-23.791-61.496-56.467
		s23.54-60.373,55.98-61.862C105.112,14.49,132.645,39.771,134.168,72.447z"/>
	<text transform="matrix(0.0512 -0.9914 0.9987 0.0522 16.4214 77.5645)" font-family="'Times-Roman'" font-size="15.8112">N</text>
	<text transform="matrix(0.2063 -0.9709 0.9782 0.2085 17.0762 66.6392)" font-family="'Times-Roman'" font-size="13.5524">E</text>
	<text transform="matrix(0.3674 -0.922 0.929 0.3707 18.4858 58.9282)" font-family="'Times-Roman'" font-size="13.5524">W</text>
	<text transform="matrix(0.4838 -0.8666 0.8733 0.4879 23.3188 47.562)" font-family="'Times-Roman'" font-size="13.5524"> </text>
	<text transform="matrix(0.5657 -0.8154 0.8218 0.5703 24.7065 44.7817)" font-family="'Times-Roman'" font-size="15.8112">S</text>
	<text transform="matrix(0.6803 -0.7225 0.7283 0.6857 29.4194 37.876)" font-family="'Times-Roman'" font-size="13.5524">A</text>
	<text transform="matrix(0.7853 -0.6069 0.6119 0.7914 35.7974 31.0586)" font-family="'Times-Roman'" font-size="13.5524">N</text>
	<text transform="matrix(0.8683 -0.4807 0.4848 0.8749 43.1709 25.356)" font-family="'Times-Roman'" font-size="13.5524">C</text>
	<text transform="matrix(0.9275 -0.3534 0.3566 0.9345 50.7144 21.1821)" font-family="'Times-Roman'" font-size="13.5524">T</text>
	<text transform="matrix(0.9696 -0.2128 0.215 0.9767 58.0298 18.3076)" font-family="'Times-Roman'" font-size="13.5524">U</text>
	<text transform="matrix(0.9908 -0.0617 0.0629 0.998 67.1201 16.3047)" font-family="'Times-Roman'" font-size="13.5524">A</text>
	<text transform="matrix(0.9884 0.0933 -0.0933 0.9955 76.4541 15.7407)" font-family="'Times-Roman'" font-size="13.5524">R</text>
	<text transform="matrix(0.9626 0.2437 -0.2448 0.9694 85.0127 16.4897)" font-family="'Times-Roman'" font-size="13.5524">Y</text>
	<text transform="matrix(0.9307 0.3461 -0.348 0.9372 94.1416 18.9624)" font-family="'Times-Roman'" font-size="13.5524"> </text>
	<text transform="matrix(0.8727 0.4739 -0.4768 0.8787 97.1113 19.6406)" font-family="'Times-Roman'" font-size="15.8112">M</text>
	<text transform="matrix(0.7662 0.6318 -0.6359 0.7713 108.8867 26.2183)" font-family="'Times-Roman'" font-size="13.5524">O</text>
	<text transform="matrix(0.6582 0.7436 -0.7487 0.6624 116.1123 32.1401)" font-family="'Times-Roman'" font-size="13.5524">V</text>
	<text transform="matrix(0.5444 0.8306 -0.8363 0.5477 122.2832 39.1514)" font-family="'Times-Roman'" font-size="13.5524">E</text>
	<text transform="matrix(0.4021 0.9079 -0.9143 0.4044 126.7314 45.5981)" font-family="'Times-Roman'" font-size="13.5524">M</text>
	<text transform="matrix(0.2487 0.9612 -0.9681 0.2499 131.3057 56.2266)" font-family="'Times-Roman'" font-size="13.5524">E</text>
	<text transform="matrix(0.1084 0.9869 -0.9941 0.1085 133.3486 63.8086)" font-family="'Times-Roman'" font-size="13.5524">N</text>
	<text transform="matrix(-0.0325 0.9922 -0.9995 -0.0334 134.3438 73.1211)" font-family="'Times-Roman'" font-size="13.5524">T</text>
	<ellipse fill="none" cx="75.2" cy="89.576" rx="64.884" ry="56.136"/>
	<text transform="matrix(0.9682 0.6313 -0.5462 0.8377 30.9463 131.0166)" font-family="'Times-Roman'" font-size="14.9855">N</text>
	<text transform="matrix(1.0674 0.4433 -0.3835 0.9235 42.5073 138.2803)" font-family="'Times-Roman'" font-size="14.2719">E</text>
	<text transform="matrix(1.1334 0.2264 -0.1958 0.9806 52.9141 142.75)" font-family="'Times-Roman'" font-size="14.2719">W</text>
	<text transform="matrix(1.1542 0.0613 -0.0531 0.9986 69.104 145.4951)" font-family="'Times-Roman'" font-size="14.2719"> </text>
	<text transform="matrix(1.1533 -0.0759 0.0657 0.9978 73.9521 145.958)" font-family="'Times-Roman'" font-size="14.9855">Y</text>
	<text transform="matrix(1.1209 -0.282 0.244 0.9698 87.5713 144.9404)" font-family="'Times-Roman'" font-size="14.2719">O</text>
	<text transform="matrix(1.0534 -0.4756 0.4115 0.9114 100.1602 141.6396)" font-family="'Times-Roman'" font-size="14.2719">R</text>
	<text transform="matrix(0.9452 -0.6652 0.5755 0.8178 111.2441 136.5752)" font-family="'Times-Roman'" font-size="14.2719">K</text>
	<g>
		<g>
			<path fill-rule="evenodd" clip-rule="evenodd" d="M25.774,121.476c-1.251-1.484-2.505-2.961-3.749-4.457
				c-0.305-0.366-0.615-0.745-0.85-1.201c-0.63-1.222-1.445-1.086-2.361-0.703c-1.419,0.592-2.713,0.234-3.829-1.064
				c-0.099-0.116-0.149-0.314-0.267-0.574c1.841-0.182,3.569-0.228,5.197,0.846c0.036-0.101,0.072-0.199,0.11-0.3
				c-0.457-0.701-0.886-1.45-1.386-2.08c-0.142-0.18-0.52-0.127-0.743,0.002c-0.992,0.574-1.966,0.489-2.944,0.173
				c-0.393-0.128-0.792-0.233-1.168-0.424c-0.232-0.117-0.423-0.378-0.599-0.689c1.77-0.748,3.446-0.666,5.047,0.442
				c0.031-0.052,0.063-0.104,0.096-0.155c-0.414-0.679-0.823-1.363-1.248-2.029c-0.043-0.066-0.173-0.021-0.264-0.027
				c-1.358-0.092-2.718-0.167-4.074-0.292c-0.414-0.038-0.765-0.306-0.951-1.114c1.678-0.457,3.201,0.212,4.749,0.538
				c-0.242-1.029-1.132-1.681-1.948-1.772c-1.162-0.134-2.31-0.456-3.454-0.762c-0.249-0.066-0.452-0.41-0.676-0.624
				c0.025-0.102,0.052-0.201,0.079-0.299c0.826,0.115,1.665,0.155,2.476,0.37c0.829,0.218,1.63,0.609,2.419,0.917
				c-0.308-0.586-0.589-1.392-1.04-1.884c-0.298-0.328-0.835-0.24-1.27-0.284c-1.263-0.129-2.39-0.75-3.577-1.678
				c1.724-0.637,3.015,0.479,4.401,1.308c-0.238-1.513-0.886-2.8-2.023-2.395c-1.155,0.41-2.081-0.515-3.015-1.548
				c0.205-0.086,0.413-0.255,0.611-0.246c0.925,0.043,1.845,0.138,2.627,0.92c0.201,0.2,0.444,0.315,0.667,0.469
				c0.039-0.05,0.078-0.099,0.116-0.146c-0.306-0.794-0.571-1.631-0.939-2.354c-0.104-0.205-0.511-0.151-0.773-0.104
				c-1.04,0.188-1.824-0.542-2.607-1.289c-0.046-0.043-0.042-0.189-0.076-0.369c1.193-0.373,2.129,0.515,3.276,1.081
				c-0.303-0.794-0.525-1.412-0.777-2.001c-0.06-0.141-0.218-0.233-0.343-0.264c-0.609-0.149-1.231-0.228-1.833-0.419
				c-0.354-0.111-0.693-0.366-0.683-1.075c0.563-0.381,1.027-0.158,1.486,0.3c0.307,0.307,0.657,0.523,0.99,0.779
				c0.042-0.076,0.083-0.151,0.125-0.229c-0.126-0.428-0.222-0.884-0.39-1.271c-0.085-0.194-0.291-0.295-0.456-0.396
				c-0.58-0.352-1.175-0.653-1.74-1.046c-0.167-0.117-0.251-0.472-0.44-0.851c1.057-0.286,1.427,1.234,2.28,1.316
				c-0.069-1.893-1.39-2.077-1.972-3.309c0.216,0.111,0.442,0.197,0.647,0.34c0.205,0.14,0.39,0.334,0.597,0.517
				c0.164-1.302-0.573-1.89-0.971-2.725c0.044-0.044,0.09-0.088,0.135-0.13c0.161,0.244,0.321,0.488,0.559,0.854
				c-0.053-0.896-0.098-1.655-0.143-2.414c0.045-0.012,0.091-0.023,0.136-0.035c0.083,0.674,0.167,1.347,0.251,2.021
				c0.037,0.004,0.073,0.009,0.11,0.015c0.142-0.562,0.283-1.124,0.424-1.685c0.051,0.019,0.102,0.039,0.153,0.06
				c-0.111,0.507-0.152,1.078-0.35,1.509c-0.379,0.825-0.178,1.482,0.103,2.397c0.237-1.13,0.432-2.062,0.627-2.994
				c0.049-0.005,0.098-0.01,0.146-0.016c0.007,0.386,0.072,0.785,0.01,1.151c-0.136,0.804-0.396,1.578-0.488,2.386
				c-0.054,0.473,0.119,0.983,0.191,1.478c0.078-0.013,0.157-0.025,0.236-0.037c0.229-1.154,0.457-2.309,0.687-3.463
				c0.018,0,0.037,0,0.056,0c-0.043,0.683-0.069,1.368-0.137,2.05c-0.036,0.366-0.104,0.748-0.223,1.079
				c-0.394,1.102-0.029,1.924,0.389,2.915c-0.015-1.795,0.447-3.226,1.111-4.608c0.007,0.212,0.049,0.437,0.014,0.637
				c-0.227,1.276-0.419,2.57-0.725,3.813c-0.171,0.696-0.122,1.226,0.115,1.784c0.154,0.366,0.293,0.745,0.518,1.327
				c0.221-1.975,0.088-3.826,0.972-5.324c0.386,0.472,0.438,1.532,0.127,2.597c-0.181,0.622-0.314,1.275-0.539,1.865
				c-0.503,1.325-0.13,2.274,0.48,3.193c0.34-1.952,0.674-3.867,1.008-5.784c0.071-0.002,0.142-0.004,0.213-0.006
				c0.04,0.247,0.136,0.498,0.111,0.732c-0.133,1.214-0.28,2.423-0.458,3.626c-0.104,0.706-0.303,1.39-0.402,2.095
				c-0.033,0.23,0.087,0.523,0.183,0.745c0.262,0.611,0.548,1.197,0.868,1.889c-0.004-2.564,0.163-4.971,1.222-7.076
				c0.061,0.009,0.121,0.019,0.182,0.029c-0.049,0.774-0.054,1.558-0.156,2.323c-0.24,1.787-0.615,3.555-0.75,5.348
				c-0.05,0.68,0.412,1.403,0.737,2.068c0.089-3.014,0.642-5.761,1.805-8.262c0.059,0.009,0.118,0.017,0.177,0.023
				c-0.007,0.258,0.02,0.524-0.024,0.771c-0.34,1.874-0.713,3.736-1.035,5.614c-0.143,0.832-0.278,1.704-0.251,2.535
				c0.018,0.551,0.33,1.06,0.611,1.549c0.026-3.429,0.81-6.491,2.034-9.388c0.244,0.573,0.242,1.717-0.049,2.883
				c-0.411,1.65-0.862,3.282-1.266,4.937c-0.143,0.583-0.214,1.201-0.28,1.81c-0.023,0.206,0.025,0.475,0.109,0.64
				c0.265,0.521,0.562,1.009,0.897,1.595c0.185-1.817,0.251-3.563,0.564-5.23c0.321-1.71,1.07-3.188,1.841-4.595
				c0.052,0.013,0.104,0.024,0.157,0.038c-0.043,0.684,0.003,1.406-0.146,2.046c-0.504,2.144-1.098,4.248-1.613,6.387
				c-0.163,0.679-0.196,1.413-0.268,2.127c-0.014,0.132,0.05,0.31,0.116,0.413c0.315,0.489,0.642,0.962,1.065,1.588
				c-0.13-3.484,0.832-6.394,1.837-9.275c0.142-0.405,0.47-0.687,0.71-1.025c0.034,0.46,0.17,0.959,0.083,1.374
				c-0.498,2.343-1.043,4.667-1.587,6.99c-0.082,0.354-0.233,0.68-0.365,1.008c-0.328,0.819-0.271,1.61,0.183,2.238
				c1.077,1.494,2.172,2.961,3.231,4.48c0.542,0.778,1.021,1.645,1.527,2.471C25.995,121.49,25.885,121.482,25.774,121.476z"/>
		</g>
		<g>
			<path fill-rule="evenodd" clip-rule="evenodd" d="M124.627,121.476c1.251-1.484,2.505-2.961,3.749-4.457
				c0.305-0.366,0.615-0.745,0.85-1.201c0.63-1.222,1.446-1.086,2.361-0.703c1.421,0.592,2.713,0.234,3.829-1.064
				c0.1-0.116,0.149-0.314,0.269-0.574c-1.844-0.182-3.57-0.228-5.198,0.846c-0.036-0.101-0.073-0.199-0.109-0.3
				c0.455-0.701,0.885-1.45,1.386-2.08c0.143-0.18,0.521-0.127,0.744,0.002c0.99,0.574,1.964,0.489,2.943,0.173
				c0.392-0.128,0.792-0.233,1.169-0.424c0.23-0.117,0.423-0.378,0.599-0.689c-1.77-0.748-3.446-0.666-5.048,0.442
				c-0.03-0.052-0.062-0.104-0.096-0.155c0.415-0.679,0.824-1.363,1.248-2.029c0.043-0.066,0.173-0.021,0.264-0.027
				c1.358-0.092,2.718-0.167,4.074-0.292c0.414-0.038,0.766-0.306,0.951-1.114c-1.678-0.457-3.201,0.212-4.748,0.538
				c0.241-1.029,1.131-1.681,1.946-1.772c1.162-0.134,2.311-0.456,3.455-0.762c0.247-0.066,0.45-0.41,0.676-0.624
				c-0.026-0.102-0.052-0.201-0.079-0.299c-0.827,0.115-1.665,0.155-2.477,0.37c-0.829,0.218-1.631,0.609-2.418,0.917
				c0.308-0.586,0.59-1.392,1.04-1.884c0.299-0.328,0.835-0.24,1.27-0.284c1.263-0.129,2.39-0.75,3.575-1.678
				c-1.724-0.637-3.014,0.479-4.399,1.308c0.236-1.513,0.886-2.8,2.022-2.395c1.154,0.41,2.081-0.515,3.015-1.548
				c-0.205-0.086-0.413-0.255-0.611-0.246c-0.925,0.043-1.844,0.138-2.628,0.92c-0.2,0.2-0.443,0.315-0.666,0.469
				c-0.039-0.05-0.077-0.099-0.117-0.146c0.306-0.794,0.571-1.631,0.94-2.354c0.104-0.205,0.51-0.151,0.771-0.104
				c1.04,0.188,1.825-0.542,2.607-1.289c0.046-0.043,0.042-0.189,0.077-0.369c-1.192-0.373-2.13,0.515-3.276,1.081
				c0.304-0.794,0.525-1.412,0.778-2.001c0.059-0.141,0.217-0.233,0.341-0.264c0.609-0.149,1.232-0.228,1.833-0.419
				c0.354-0.111,0.693-0.366,0.683-1.075c-0.562-0.381-1.027-0.158-1.485,0.3c-0.308,0.307-0.657,0.523-0.99,0.779
				c-0.041-0.076-0.084-0.151-0.126-0.229c0.126-0.428,0.223-0.884,0.39-1.271c0.085-0.194,0.291-0.295,0.456-0.396
				c0.58-0.352,1.176-0.653,1.739-1.046c0.169-0.117,0.253-0.472,0.439-0.851c-1.055-0.286-1.425,1.234-2.277,1.316
				c0.069-1.893,1.389-2.077,1.972-3.309c-0.217,0.111-0.441,0.197-0.647,0.34c-0.205,0.14-0.39,0.334-0.598,0.517
				c-0.163-1.302,0.574-1.89,0.971-2.725c-0.044-0.044-0.089-0.088-0.134-0.13c-0.16,0.244-0.321,0.488-0.559,0.854
				c0.053-0.896,0.099-1.655,0.144-2.414c-0.045-0.012-0.091-0.023-0.137-0.035c-0.084,0.674-0.168,1.347-0.252,2.021
				c-0.036,0.004-0.073,0.009-0.109,0.015c-0.141-0.562-0.283-1.124-0.425-1.685c-0.05,0.019-0.102,0.039-0.152,0.06
				c0.111,0.507,0.152,1.078,0.35,1.509c0.38,0.825,0.179,1.482-0.103,2.397c-0.235-1.13-0.432-2.062-0.627-2.994
				c-0.048-0.005-0.097-0.01-0.146-0.016c-0.007,0.386-0.069,0.785-0.009,1.151c0.137,0.804,0.397,1.578,0.488,2.386
				c0.054,0.473-0.12,0.983-0.19,1.478c-0.079-0.013-0.158-0.025-0.237-0.037c-0.229-1.154-0.457-2.309-0.686-3.463
				c-0.02,0-0.038,0-0.056,0c0.042,0.683,0.069,1.368,0.137,2.05c0.036,0.366,0.104,0.748,0.222,1.079
				c0.395,1.102,0.029,1.924-0.388,2.915c0.015-1.795-0.448-3.226-1.111-4.608c-0.008,0.212-0.05,0.437-0.016,0.637
				c0.228,1.276,0.421,2.57,0.726,3.813c0.172,0.696,0.121,1.226-0.114,1.784c-0.155,0.366-0.293,0.745-0.519,1.327
				c-0.221-1.975-0.088-3.826-0.973-5.324c-0.385,0.472-0.437,1.532-0.127,2.597c0.182,0.622,0.314,1.275,0.538,1.865
				c0.504,1.325,0.131,2.274-0.479,3.193c-0.341-1.952-0.674-3.867-1.009-5.784c-0.071-0.002-0.143-0.004-0.214-0.006
				c-0.039,0.247-0.136,0.498-0.11,0.732c0.133,1.214,0.28,2.423,0.458,3.626c0.105,0.706,0.304,1.39,0.403,2.095
				c0.032,0.23-0.088,0.523-0.184,0.745c-0.262,0.611-0.548,1.197-0.868,1.889c0.004-2.564-0.163-4.971-1.223-7.076
				c-0.06,0.009-0.121,0.019-0.182,0.029c0.049,0.774,0.054,1.558,0.155,2.323c0.24,1.787,0.617,3.555,0.751,5.348
				c0.051,0.68-0.412,1.403-0.737,2.068c-0.09-3.014-0.642-5.761-1.805-8.262c-0.059,0.009-0.117,0.017-0.177,0.023
				c0.005,0.258-0.022,0.524,0.023,0.771c0.339,1.874,0.713,3.736,1.035,5.614c0.143,0.832,0.278,1.704,0.252,2.535
				c-0.02,0.551-0.331,1.06-0.612,1.549c-0.026-3.429-0.809-6.491-2.033-9.388c-0.245,0.573-0.242,1.717,0.048,2.883
				c0.412,1.65,0.863,3.282,1.268,4.937c0.142,0.583,0.212,1.201,0.279,1.81c0.022,0.206-0.024,0.475-0.108,0.64
				c-0.267,0.521-0.563,1.009-0.897,1.595c-0.187-1.817-0.252-3.563-0.565-5.23c-0.322-1.71-1.069-3.188-1.842-4.595
				c-0.051,0.013-0.104,0.024-0.156,0.038c0.044,0.684-0.003,1.406,0.146,2.046c0.504,2.144,1.098,4.248,1.612,6.387
				c0.163,0.679,0.197,1.413,0.269,2.127c0.014,0.132-0.05,0.31-0.117,0.413c-0.313,0.489-0.642,0.962-1.065,1.588
				c0.131-3.484-0.831-6.394-1.837-9.275c-0.142-0.405-0.469-0.687-0.71-1.025c-0.033,0.46-0.17,0.959-0.082,1.374
				c0.496,2.343,1.043,4.667,1.587,6.99c0.081,0.354,0.232,0.68,0.364,1.008c0.328,0.819,0.271,1.61-0.182,2.238
				c-1.078,1.494-2.174,2.961-3.233,4.48c-0.541,0.778-1.02,1.645-1.526,2.471C124.406,121.49,124.518,121.482,124.627,121.476z"/>
		</g>
	</g>
</g>
</svg>
