<?xml version="1.0" encoding="utf-8"?>
<!-- Generator: Adobe Illustrator 16.0.0, SVG Export Plug-In . SVG Version: 6.00 Build 0)  -->
<!DOCTYPE svg PUBLIC "-//W3C//DTD SVG 1.1//EN" "http://www.w3.org/Graphics/SVG/1.1/DTD/svg11.dtd">
<svg version="1.1" id="Layer_1" xmlns="http://www.w3.org/2000/svg" xmlns:xlink="http://www.w3.org/1999/xlink" x="0px" y="0px"
	 width="125px" height="127px" viewBox="12.5 11.5 125 127" enable-background="new 12.5 11.5 125 127" xml:space="preserve">
<g>
	<g>
		<ellipse fill="#FFFFFF" cx="75.168" cy="75.32" rx="62.258" ry="61.795"/>
		<path d="M137.5,75.321c0,0-0.01,0.378-0.027,1.114c-0.008,0.366-0.018,0.821-0.031,1.365c-0.011,0.271-0.005,0.563-0.029,0.876
			c-0.023,0.312-0.049,0.647-0.074,1.004c-0.182,2.839-0.644,7.015-2.041,12.155c-0.181,0.641-0.366,1.299-0.557,1.973
			c-0.223,0.664-0.448,1.346-0.682,2.044c-0.216,0.705-0.498,1.403-0.772,2.122c-0.282,0.717-0.543,1.46-0.884,2.189
			c-1.244,2.962-2.867,6.057-4.888,9.185c-2.021,3.127-4.456,6.282-7.353,9.316c-1.44,1.521-3.015,2.993-4.685,4.432
			c-0.407,0.373-0.854,0.703-1.288,1.057c-0.435,0.348-0.874,0.696-1.314,1.047c-0.452,0.342-0.918,0.664-1.382,0.999
			c-0.468,0.328-0.923,0.677-1.406,0.993c-1.929,1.268-3.933,2.519-6.079,3.604c-0.537,0.273-1.074,0.549-1.614,0.824
			c-0.554,0.25-1.109,0.503-1.667,0.753c-1.106,0.531-2.273,0.951-3.43,1.416c-0.574,0.243-1.178,0.42-1.771,0.629
			c-0.596,0.2-1.191,0.411-1.797,0.599c-0.613,0.171-1.226,0.344-1.844,0.518c-0.305,0.085-0.615,0.171-0.924,0.26
			c-0.312,0.077-0.626,0.144-0.938,0.217c-0.63,0.144-1.26,0.288-1.894,0.434c-0.635,0.141-1.279,0.232-1.924,0.352
			c-0.322,0.059-0.644,0.115-0.968,0.171l-0.486,0.086l-0.488,0.063c-0.654,0.08-1.311,0.159-1.969,0.239
			c-0.658,0.095-1.323,0.128-1.988,0.177c-0.667,0.045-1.336,0.099-2.006,0.136c-0.673,0.017-1.347,0.029-2.022,0.042
			c-0.339,0.007-0.676,0.014-1.016,0.021c-0.37-0.003-0.681-0.018-1.025-0.027c-0.674-0.02-1.35-0.044-2.027-0.065
			c-0.68-0.029-1.372-0.106-2.059-0.158c-1.383-0.086-2.749-0.305-4.127-0.484c-2.744-0.451-5.504-1.008-8.215-1.841
			c-1.371-0.366-2.703-0.874-4.057-1.332c-0.668-0.252-1.329-0.528-1.996-0.794l-1-0.4l-0.98-0.449
			c-5.26-2.355-10.238-5.518-14.767-9.302c-0.556-0.483-1.114-0.97-1.673-1.455c-0.552-0.493-1.074-1.02-1.615-1.527
			c-0.268-0.257-0.541-0.507-0.804-0.77l-0.771-0.804l-0.771-0.808c-0.258-0.269-0.519-0.533-0.757-0.821
			c-2.005-2.206-3.809-4.602-5.514-7.074c-0.408-0.631-0.818-1.261-1.229-1.893c-0.402-0.635-0.764-1.296-1.148-1.943
			c-0.188-0.327-0.383-0.649-0.565-0.981l-0.521-1.003l-0.522-1.006c-0.176-0.333-0.349-0.669-0.5-1.016l-0.946-2.062
			c-0.306-0.692-0.569-1.404-0.855-2.105c-0.139-0.352-0.287-0.701-0.417-1.057l-0.37-1.075l-0.371-1.076
			c-0.125-0.358-0.248-0.716-0.347-1.084l-0.642-2.188c-0.208-0.732-0.364-1.477-0.548-2.214l-0.265-1.11l-0.21-1.122
			c-0.132-0.751-0.298-1.496-0.403-2.251l-0.307-2.266c-0.058-0.376-0.092-0.757-0.121-1.137l-0.096-1.139l-0.095-1.143
			c-0.036-0.378-0.032-0.761-0.049-1.142L12.5,75.31l0.039-2.275c0.012-0.38,0-0.755,0.031-1.139l0.078-1.147l0.078-1.147
			c0.022-0.382,0.051-0.765,0.104-1.143l0.272-2.274c0.094-0.759,0.247-1.507,0.369-2.262l0.194-1.128l0.248-1.118
			c0.173-0.743,0.319-1.493,0.515-2.23l0.612-2.206c0.096-0.369,0.217-0.73,0.34-1.092l0.363-1.084l0.364-1.084
			c0.128-0.359,0.274-0.71,0.41-1.066c0.283-0.707,0.543-1.423,0.845-2.122c0.311-0.694,0.623-1.387,0.935-2.082
			c0.149-0.349,0.32-0.688,0.494-1.025l0.517-1.016l0.518-1.016c0.18-0.333,0.374-0.659,0.561-0.99
			c0.381-0.654,0.741-1.323,1.141-1.965c0.408-0.639,0.815-1.276,1.221-1.914c0.198-0.323,0.417-0.63,0.637-0.938l0.655-0.925
			l0.656-0.921l0.696-0.891c0.471-0.588,0.92-1.194,1.408-1.767c0.493-0.567,0.984-1.135,1.476-1.702
			c0.242-0.288,0.502-0.557,0.763-0.828l0.775-0.813l0.775-0.812c0.265-0.264,0.54-0.518,0.81-0.777
			c0.545-0.511,1.073-1.04,1.63-1.533c0.563-0.488,1.127-0.975,1.689-1.46c4.564-3.811,9.603-6.957,14.905-9.296l0.99-0.446
			l1.006-0.399c0.672-0.263,1.338-0.537,2.012-0.786c1.363-0.453,2.706-0.955,4.087-1.31c2.73-0.815,5.51-1.351,8.267-1.782
			c1.387-0.169,2.76-0.378,4.14-0.452c0.689-0.046,1.374-0.117,2.061-0.142c0.685-0.018,1.371-0.034,2.052-0.051l0.512-0.012
			l0.254-0.005l0.129-0.002c0.037-0.002,0.121,0.001,0.146,0.002c0.335,0.009,0.671,0.018,1.005,0.027
			c0.669,0.019,1.337,0.037,2.002,0.055c0.673,0.042,1.351,0.102,2.02,0.15c0.671,0.055,1.343,0.093,1.998,0.192
			c0.66,0.085,1.317,0.169,1.972,0.253l0.49,0.064l0.486,0.086c0.324,0.058,0.646,0.117,0.969,0.175
			c0.644,0.122,1.292,0.216,1.927,0.361c0.632,0.146,1.265,0.293,1.892,0.438c0.315,0.074,0.63,0.142,0.94,0.222
			c0.311,0.088,0.62,0.176,0.928,0.264c0.615,0.174,1.228,0.35,1.841,0.523c0.606,0.189,1.201,0.403,1.799,0.604
			c0.594,0.21,1.194,0.389,1.771,0.633c4.667,1.782,8.959,4.045,12.784,6.632c3.837,2.581,7.176,5.516,10.073,8.543
			c2.896,3.035,5.326,6.196,7.348,9.323c2.021,3.13,3.644,6.224,4.888,9.188c0.341,0.729,0.602,1.472,0.883,2.189
			c0.275,0.719,0.557,1.417,0.771,2.122c0.234,0.698,0.461,1.38,0.684,2.045c0.188,0.675,0.372,1.332,0.553,1.973
			c1.398,5.14,1.856,9.319,2.035,12.156c0.025,0.354,0.051,0.689,0.074,1.003c0.024,0.312,0.019,0.606,0.029,0.877
			c0.014,0.542,0.021,1,0.03,1.368c0.018,0.735,0.026,1.115,0.026,1.115v0.001H137.5z M137.35,75.32c0,0-0.011-0.378-0.03-1.112
			c-0.011-0.366-0.023-0.822-0.039-1.364c-0.011-0.27-0.006-0.562-0.034-0.875c-0.023-0.312-0.05-0.646-0.078-1
			c-0.191-2.826-0.66-6.997-2.137-12.093c-0.188-0.635-0.379-1.287-0.577-1.956c-0.229-0.659-0.465-1.334-0.705-2.025
			c-0.229-0.696-0.526-1.383-0.815-2.092c-0.296-0.707-0.57-1.439-0.924-2.154c-1.302-2.915-2.98-5.945-5.048-8.996
			c-2.068-3.05-4.551-6.108-7.475-9.026c-2.924-2.917-6.286-5.698-10.083-8.168c-3.803-2.456-8.023-4.617-12.6-6.312
			c-4.574-1.7-9.521-2.862-14.672-3.447c-0.645-0.094-1.288-0.125-1.937-0.175c-0.646-0.045-1.294-0.1-1.948-0.139
			c-0.665-0.016-1.333-0.03-2.002-0.045c-0.334-0.007-0.67-0.015-1.006-0.022c-0.06-0.001-0.06-0.003-0.104-0.001l-0.125,0.004
			l-0.249,0.006l-0.498,0.013c-0.666,0.019-1.333,0.036-2.001,0.051c-0.668,0.024-1.336,0.094-2.008,0.139
			c-1.346,0.07-2.685,0.275-4.036,0.438c-2.688,0.419-5.396,0.938-8.058,1.731c-1.346,0.347-2.654,0.833-3.989,1.264
			c-0.657,0.24-1.308,0.503-1.966,0.754L51.221,19.1l-0.967,0.43c-5.186,2.249-10.125,5.289-14.609,8.984
			c-0.552,0.472-1.105,0.945-1.659,1.418c-0.548,0.479-1.067,0.993-1.603,1.49c-0.265,0.251-0.536,0.498-0.796,0.753l-0.763,0.79
			l-0.763,0.791c-0.256,0.262-0.513,0.524-0.75,0.805c-0.485,0.552-0.969,1.104-1.455,1.655c-0.481,0.558-0.923,1.147-1.388,1.72
			l-0.688,0.867l-0.648,0.898l-0.652,0.898c-0.217,0.299-0.437,0.596-0.633,0.912c-6.671,9.798-10.439,21.733-10.528,33.819
			l0.042,2.25c0.012,0.376,0.001,0.754,0.032,1.13l0.079,1.128l0.078,1.128c0.022,0.376,0.051,0.75,0.103,1.125l0.271,2.245
			c0.094,0.746,0.247,1.485,0.367,2.23l0.192,1.113l0.246,1.102c0.171,0.734,0.316,1.475,0.511,2.201l0.607,2.176
			c0.095,0.363,0.216,0.72,0.338,1.075l0.361,1.068l0.361,1.069c0.127,0.353,0.273,0.699,0.408,1.05
			c0.281,0.696,0.539,1.403,0.837,2.091l0.927,2.05c0.149,0.344,0.319,0.677,0.492,1.011l0.513,0.999l0.512,1
			c0.178,0.328,0.371,0.649,0.556,0.975c0.378,0.645,0.734,1.302,1.129,1.934c0.404,0.628,0.807,1.257,1.209,1.885
			c0.195,0.317,0.414,0.618,0.63,0.923l0.649,0.908l0.65,0.908l0.691,0.874c0.468,0.576,0.912,1.172,1.396,1.733
			c0.488,0.558,0.976,1.114,1.462,1.671c2.004,2.174,4.111,4.24,6.383,6.09c4.522,3.719,9.521,6.741,14.75,8.975l0.976,0.428
			l0.992,0.379c0.662,0.249,1.318,0.511,1.981,0.747c1.344,0.427,2.662,0.905,4.019,1.242c2.682,0.774,5.408,1.272,8.109,1.673
			c1.357,0.153,2.708,0.346,4.049,0.404c0.672,0.04,1.334,0.103,2.01,0.122c0.677,0.011,1.354,0.022,2.027,0.035
			c0.33,0.007,0.69,0.019,0.993,0.017c0.331-0.01,0.664-0.021,0.994-0.029c0.663-0.02,1.324-0.041,1.981-0.061
			c0.657-0.042,1.312-0.103,1.963-0.152c0.652-0.053,1.304-0.092,1.946-0.19c5.158-0.612,10.108-1.791,14.684-3.506
			c4.576-1.708,8.795-3.879,12.597-6.344c3.791-2.479,7.155-5.262,10.078-8.182c2.922-2.923,5.4-5.984,7.468-9.035
			c2.066-3.051,3.748-6.083,5.048-8.998c1.299-2.915,2.339-5.67,3.022-8.231c1.475-5.096,1.939-9.269,2.13-12.093
			c0.027-0.354,0.054-0.688,0.078-1c0.028-0.312,0.022-0.606,0.033-0.875c0.016-0.542,0.028-0.999,0.038-1.367
			C137.34,75.698,137.35,75.319,137.35,75.32L137.35,75.32z"/>
	</g>
	<path fill="#DD1F26" d="M70.225,91.144c-7.657-0.196-6.651-7.491-10.418-12.125c-2.215-2.724-7.091-6.232-6.02-10.242
		c1.926-7.207,14.917-5.42,19.683-3.45c0.023,6.504,7.171-0.338,9.54-1.16c7.349-2.551,13.755-3.44,15.37,5.154
		c1.044,5.554,3.999,10.308-0.479,15.116c-2.884,3.093-5.488,5.455-9.383,6.682c-4.088,1.289-14.566,4.639-18.59,2.402"/>
	<g>
		<g>
			<path fill="#FFFFFF" d="M116.213,51.326c-2.803,1.805-5.525,3.637-8.994,4.733c-4.268,1.349-9.059-0.046-13.479,0.149
				c-9.736,0.429-21.096,12.017-17.162,14.221c1.727,0.557,4.76-3.102,8.025-4.559c3.947-1.762,8.107-1.095,9.105,3.891
				c1.159,5.797-11.555,16.233-14.5,19.501c-1.424,1.579-5.071,4.848-2.56,6.649c2.023,1.452,6.553-1.688,8.188-2.656
				c4.465-2.645,8.862-8.477,12.935-11.738c-3.836,4.539-11.048,10.54-16.048,14.347c4.375,4.716,16.653-5.893,19.031-9.679
				c-1.961,3.137-7.951,7.715-11.108,9.582c9.741,1.883,20.44-10.606,24.485-17.558c2.243-3.854,6.553-7.865,7.221-12.276
				c0.906-5.98-3.033-9.635-5.244-14.514"/>
			<path d="M116.246,51.376c-0.842,0.566-1.68,1.139-2.534,1.689c-0.851,0.556-1.729,1.071-2.624,1.561
				c-0.449,0.24-0.912,0.464-1.371,0.69c-0.47,0.198-0.932,0.424-1.415,0.599l-0.723,0.266c-0.123,0.043-0.23,0.092-0.368,0.13
				l-0.366,0.107l-0.366,0.107l-0.384,0.084c-0.256,0.056-0.513,0.114-0.769,0.146c-1.024,0.167-2.061,0.208-3.089,0.198
				c-1.027-0.015-2.051-0.082-3.065-0.155c-2.027-0.143-4.046-0.336-6.026-0.148c-0.973,0.097-1.95,0.312-2.899,0.593
				c-0.948,0.288-1.879,0.646-2.784,1.059c-1.812,0.832-3.525,1.882-5.113,3.084c-0.796,0.601-1.554,1.248-2.28,1.925
				c-0.722,0.682-1.405,1.401-2.017,2.168c-0.605,0.766-1.162,1.584-1.499,2.443c-0.167,0.424-0.266,0.867-0.234,1.239
				c0.035,0.374,0.204,0.623,0.525,0.806l-0.097-0.042c0.2,0.066,0.523,0.013,0.858-0.13c0.334-0.137,0.677-0.341,1.014-0.559
				c0.677-0.442,1.337-0.955,2.012-1.46c0.677-0.506,1.362-1.015,2.095-1.478c0.366-0.231,0.745-0.454,1.137-0.653
				c0.201-0.103,0.385-0.191,0.614-0.287l0.586-0.234c0.844-0.307,1.71-0.522,2.604-0.603c0.893-0.08,1.822-0.017,2.7,0.286
				c0.878,0.297,1.679,0.841,2.267,1.542c0.596,0.702,0.994,1.525,1.26,2.366c0.059,0.212,0.105,0.426,0.159,0.64l0.075,0.319
				l0.042,0.342c0.007,0.107,0.031,0.199,0.026,0.321l-0.005,0.358c0.005,0.246-0.041,0.459-0.07,0.683
				c-0.146,0.885-0.469,1.703-0.848,2.477c-0.376,0.776-0.825,1.507-1.305,2.208c-0.478,0.703-0.992,1.378-1.527,2.034
				c-1.064,1.316-2.208,2.559-3.381,3.767c-1.176,1.207-2.387,2.378-3.602,3.54c-1.212,1.165-2.456,2.3-3.63,3.487
				c-1.123,1.234-2.386,2.383-3.258,3.773c-0.211,0.35-0.399,0.713-0.506,1.094c-0.055,0.19-0.083,0.384-0.092,0.574
				c0.002,0.188,0.023,0.378,0.086,0.554c0.119,0.35,0.396,0.655,0.695,0.872c0.19,0.12,0.33,0.192,0.521,0.246
				c0.185,0.054,0.377,0.084,0.575,0.091c0.796,0.02,1.604-0.229,2.369-0.534c0.767-0.311,1.508-0.698,2.232-1.111
				c0.728-0.415,1.433-0.862,2.152-1.308c0.347-0.218,0.713-0.445,1.056-0.678c0.331-0.246,0.677-0.473,0.995-0.743
				c1.304-1.038,2.515-2.195,3.692-3.383c1.18-1.188,2.327-2.413,3.502-3.62c1.179-1.203,2.375-2.397,3.69-3.486l0.515,0.52
				l-0.897,1.02c-0.303,0.334-0.589,0.689-0.908,1.007l-0.942,0.976c-0.317,0.321-0.623,0.655-0.952,0.963l-0.977,0.938
				c-0.327,0.311-0.643,0.635-0.981,0.933l-2.005,1.814l-2.041,1.774l-2.07,1.736l-2.1,1.706c-0.706,0.562-1.417,1.116-2.128,1.671
				l0.07-0.789c0.3,0.28,0.612,0.55,0.998,0.698c0.369,0.179,0.794,0.244,1.216,0.293c0.22-0.005,0.435,0.015,0.655-0.005
				c0.223-0.026,0.442-0.028,0.664-0.078c0.223-0.042,0.443-0.073,0.666-0.137c0.221-0.059,0.443-0.112,0.661-0.19
				c0.438-0.137,0.873-0.308,1.302-0.493c0.43-0.186,0.85-0.396,1.267-0.608c0.414-0.224,0.827-0.453,1.23-0.7
				c0.403-0.246,0.806-0.496,1.199-0.762c0.396-0.262,0.778-0.54,1.164-0.815c0.384-0.283,0.762-0.569,1.136-0.864
				c0.371-0.296,0.742-0.595,1.102-0.903c0.364-0.306,0.72-0.623,1.072-0.94c0.352-0.319,0.697-0.646,1.036-0.977
				c0.337-0.332,0.669-0.671,0.991-1.016c0.321-0.343,0.634-0.695,0.93-1.055c0.294-0.358,0.572-0.727,0.809-1.095l1.069,0.66
				c-0.186,0.269-0.358,0.555-0.559,0.804c-0.198,0.251-0.392,0.513-0.605,0.745c-0.209,0.239-0.418,0.48-0.638,0.705
				c-0.216,0.228-0.432,0.459-0.659,0.676c-0.222,0.22-0.444,0.442-0.676,0.652c-0.229,0.21-0.454,0.43-0.691,0.632
				c-0.464,0.418-0.938,0.82-1.416,1.222c-0.48,0.395-0.964,0.785-1.457,1.165c-0.244,0.192-0.496,0.377-0.741,0.565
				c-0.249,0.19-0.502,0.371-0.752,0.554c-0.503,0.366-1.015,0.724-1.532,1.07c-0.259,0.178-0.523,0.344-0.787,0.513
				c-0.263,0.17-0.537,0.329-0.805,0.495l-0.205-1.164c1.191,0.233,2.43,0.234,3.646,0.047c1.217-0.187,2.413-0.558,3.562-1.048
				c2.303-0.986,4.424-2.42,6.382-4.033c1.958-1.619,3.77-3.429,5.436-5.362s3.21-3.979,4.559-6.14l0.502-0.823
				c0.171-0.271,0.333-0.544,0.524-0.82c0.185-0.275,0.37-0.549,0.562-0.81c0.189-0.265,0.381-0.527,0.576-0.785
				c0.776-1.039,1.575-2.048,2.329-3.08c0.756-1.031,1.475-2.084,2.064-3.198c0.592-1.11,1.029-2.301,1.181-3.527l0.056-0.479
				c0.019-0.159,0.039-0.32,0.036-0.472c0.001-0.31,0.022-0.616,0.008-0.928c-0.024-0.312-0.037-0.625-0.07-0.937
				c-0.053-0.309-0.096-0.621-0.154-0.929c-0.255-1.233-0.723-2.424-1.285-3.568c-0.562-1.146-1.217-2.254-1.855-3.372
				c-0.641-1.118-1.26-2.255-1.771-3.439l0.11-0.049c1.108,2.321,2.639,4.398,3.858,6.689c0.606,1.143,1.129,2.352,1.437,3.63
				c0.071,0.32,0.126,0.645,0.189,0.967c0.048,0.326,0.067,0.655,0.102,0.982c0.021,0.331,0.007,0.666,0.011,0.999
				c0.006,0.17-0.01,0.33-0.027,0.488l-0.045,0.48c-0.132,1.331-0.572,2.604-1.163,3.775c-0.587,1.176-1.3,2.272-2.044,3.335
				c-0.743,1.064-1.521,2.094-2.264,3.138c-0.371,0.518-0.735,1.049-1.074,1.571c-0.174,0.255-0.336,0.538-0.503,0.812l-0.492,0.832
				c-1.352,2.229-2.89,4.328-4.56,6.325c-1.671,1.995-3.493,3.868-5.49,5.566c-1.995,1.694-4.184,3.213-6.634,4.277
				c-1.226,0.531-2.516,0.942-3.857,1.157c-1.338,0.216-2.727,0.226-4.082-0.029L87.94,96.09l1.38-0.861
				c0.256-0.159,0.513-0.311,0.767-0.478c0.254-0.165,0.508-0.327,0.758-0.5c0.504-0.336,1.002-0.686,1.495-1.042
				c0.247-0.179,0.493-0.356,0.735-0.54c0.244-0.186,0.488-0.364,0.728-0.554c0.48-0.371,0.954-0.752,1.426-1.138
				c0.466-0.391,0.929-0.781,1.379-1.188c0.23-0.197,0.447-0.409,0.672-0.612c0.223-0.202,0.435-0.417,0.65-0.627
				c0.219-0.208,0.424-0.427,0.629-0.643c0.211-0.215,0.405-0.438,0.601-0.662c0.201-0.222,0.373-0.454,0.559-0.684
				c0.189-0.227,0.332-0.469,0.502-0.703l1.07,0.662c-0.285,0.439-0.593,0.837-0.913,1.221c-0.319,0.383-0.651,0.749-0.988,1.106
				c-0.34,0.356-0.687,0.705-1.039,1.047c-0.353,0.339-0.712,0.672-1.075,0.998c-0.366,0.325-0.735,0.646-1.112,0.958
				c-0.375,0.316-0.757,0.62-1.143,0.921c-0.386,0.302-0.78,0.593-1.176,0.881c-0.4,0.283-0.801,0.568-1.212,0.835
				c-0.407,0.273-0.829,0.531-1.251,0.784c-0.424,0.253-0.857,0.489-1.294,0.722c-0.443,0.223-0.89,0.441-1.352,0.635
				c-0.459,0.195-0.927,0.376-1.412,0.523c-0.238,0.084-0.487,0.141-0.736,0.202c-0.244,0.07-0.502,0.106-0.755,0.151
				c-0.251,0.053-0.519,0.058-0.777,0.085c-0.26,0.021-0.532-0.002-0.796-0.003c-0.533-0.06-1.08-0.15-1.584-0.396
				c-0.519-0.209-0.957-0.575-1.349-0.959l-0.422-0.415l0.491-0.376l2.134-1.634l2.106-1.667l2.085-1.697l2.051-1.734l2.016-1.776
				c0.337-0.293,0.658-0.604,0.988-0.904l0.985-0.911c0.333-0.298,0.643-0.62,0.961-0.933l0.951-0.943
				c0.323-0.307,0.606-0.648,0.913-0.972l0.903-0.985l0.513,0.521c-1.297,1.03-2.508,2.185-3.699,3.361
				c-1.191,1.18-2.36,2.386-3.569,3.56c-1.207,1.174-2.448,2.323-3.798,3.356c-0.329,0.264-0.689,0.501-1.033,0.752
				c-0.354,0.239-0.706,0.452-1.072,0.681c-0.713,0.433-1.432,0.884-2.169,1.298c-0.738,0.415-1.495,0.805-2.291,1.122
				c-0.795,0.308-1.636,0.571-2.534,0.543c-0.225-0.008-0.449-0.043-0.669-0.108c-0.218-0.057-0.453-0.186-0.614-0.293
				c-0.379-0.271-0.686-0.625-0.844-1.069c-0.075-0.222-0.101-0.452-0.101-0.679c0.011-0.228,0.047-0.452,0.109-0.664
				c0.12-0.427,0.318-0.815,0.54-1.184c0.447-0.733,1.002-1.383,1.568-2.009l1.721-1.845c1.182-1.208,2.401-2.362,3.598-3.539
				c1.2-1.173,2.381-2.364,3.52-3.59c1.139-1.227,2.243-2.482,3.264-3.799c0.511-0.658,0.999-1.33,1.445-2.025
				c0.453-0.69,0.869-1.403,1.209-2.143c0.34-0.735,0.616-1.501,0.728-2.273c0.02-0.19,0.059-0.391,0.046-0.565l0.004-0.269
				c0.005-0.086-0.023-0.203-0.031-0.303l-0.038-0.28l-0.077-0.289c-0.053-0.191-0.099-0.386-0.155-0.576
				c-0.256-0.748-0.62-1.449-1.125-2.019c-0.505-0.572-1.155-0.991-1.879-1.222c-1.456-0.48-3.134-0.195-4.597,0.35
				c-1.526,0.569-2.839,1.531-4.18,2.539c-0.672,0.503-1.337,1.024-2.069,1.506c-0.369,0.239-0.747,0.473-1.194,0.654
				c-0.22,0.092-0.461,0.168-0.729,0.208c-0.267,0.041-0.57,0.039-0.872-0.057l-0.05-0.017l-0.046-0.025
				c-0.281-0.159-0.553-0.39-0.742-0.685c-0.19-0.294-0.289-0.633-0.314-0.95c-0.047-0.638,0.11-1.202,0.312-1.712
				c0.411-1.024,1.021-1.889,1.669-2.705c1.314-1.618,2.856-3.009,4.513-4.235c1.656-1.226,3.438-2.29,5.328-3.13
				c0.946-0.419,1.919-0.782,2.923-1.059c1.003-0.276,2.023-0.48,3.077-0.563c1.039-0.078,2.075-0.054,3.1,0.011
				c1.022,0.064,2.037,0.167,3.049,0.261c1.011,0.094,2.017,0.181,3.021,0.216c1.006,0.032,2.008,0.002,2.996-0.122
				c0.251-0.024,0.49-0.069,0.732-0.115l0.364-0.066l0.37-0.095l0.366-0.095c0.107-0.025,0.235-0.075,0.353-0.111l0.714-0.238
				c0.479-0.156,0.938-0.364,1.407-0.543c0.461-0.208,0.92-0.414,1.371-0.636c0.902-0.455,1.789-0.941,2.656-1.463
				c0.877-0.51,1.736-1.049,2.601-1.579L116.246,51.376z"/>
		</g>
		<g>
			<path fill="#FFFFFF" d="M35.22,51.326c2.802,1.805,5.526,3.637,8.994,4.733c4.268,1.349,9.059-0.046,13.48,0.149
				c9.735,0.429,21.095,12.017,17.162,14.221c-1.727,0.557-4.761-3.102-8.025-4.559c-3.947-1.762-8.107-1.095-9.104,3.891
				c-1.161,5.797,11.555,16.233,14.498,19.501c1.423,1.579,5.071,4.848,2.562,6.649c-2.024,1.452-6.555-1.688-8.19-2.656
				c-4.465-2.645-8.861-8.477-12.933-11.738c3.833,4.539,11.046,10.54,16.047,14.347c-4.375,4.716-16.652-5.893-19.032-9.679
				c1.96,3.137,7.952,7.715,11.109,9.582c-9.74,1.883-20.441-10.606-24.484-17.558c-2.244-3.854-7.103-7.817-7.222-12.276
				c-0.156-5.908,2.292-10.682,5.267-15.225"/>
			<path d="M35.253,51.276c1.729,1.06,3.447,2.144,5.254,3.043c0.903,0.451,1.831,0.849,2.778,1.182
				c0.237,0.085,0.475,0.166,0.715,0.238c0.238,0.078,0.476,0.144,0.723,0.209c0.473,0.122,0.97,0.21,1.462,0.273
				c0.989,0.121,1.992,0.152,2.997,0.118c1.005-0.034,2.011-0.12,3.021-0.215c1.011-0.095,2.026-0.197,3.05-0.263
				c1.024-0.063,2.061-0.092,3.099-0.01c1.054,0.083,2.073,0.286,3.078,0.562c1.002,0.278,1.976,0.641,2.922,1.06
				c1.891,0.841,3.67,1.905,5.33,3.129c1.655,1.229,3.196,2.618,4.512,4.237c0.648,0.815,1.257,1.682,1.669,2.705
				c0.2,0.51,0.356,1.075,0.311,1.713c-0.025,0.316-0.123,0.655-0.314,0.95c-0.189,0.295-0.46,0.527-0.741,0.685l-0.045,0.025
				l-0.052,0.018c-0.299,0.096-0.606,0.098-0.871,0.059c-0.268-0.042-0.507-0.12-0.73-0.21c-0.443-0.184-0.826-0.417-1.194-0.655
				c-0.73-0.483-1.396-1.005-2.066-1.508c-1.337-1.007-2.666-1.976-4.17-2.537c-0.746-0.286-1.527-0.491-2.311-0.565
				c-0.782-0.078-1.572-0.025-2.295,0.21c-0.725,0.229-1.376,0.649-1.882,1.217c-0.513,0.564-0.872,1.273-1.121,2.022
				c-0.113,0.376-0.23,0.771-0.279,1.155c-0.043,0.343-0.034,0.748,0.022,1.126c0.112,0.772,0.383,1.541,0.727,2.275
				c0.693,1.476,1.642,2.853,2.656,4.168c1.021,1.315,2.124,2.573,3.264,3.799c1.139,1.226,2.319,2.418,3.521,3.591
				c1.197,1.177,2.416,2.332,3.598,3.536l1.722,1.848c0.566,0.627,1.119,1.274,1.568,2.009c0.223,0.366,0.419,0.757,0.542,1.183
				c0.123,0.422,0.159,0.898,0.008,1.343c-0.313,0.886-1.219,1.467-2.125,1.474c-0.898,0.029-1.74-0.236-2.535-0.544
				c-0.796-0.316-1.553-0.706-2.292-1.121c-0.739-0.412-1.456-0.866-2.17-1.299l-0.542-0.328c-0.178-0.118-0.361-0.232-0.536-0.354
				c-0.351-0.239-0.693-0.491-1.031-0.748c-1.349-1.032-2.587-2.185-3.797-3.358c-1.207-1.173-2.378-2.381-3.568-3.561
				c-1.191-1.179-2.401-2.336-3.7-3.361l0.514-0.521c0.297,0.332,0.588,0.669,0.892,0.992c0.308,0.322,0.606,0.651,0.921,0.967
				c0.315,0.316,0.623,0.638,0.947,0.946c0.321,0.311,0.637,0.625,0.965,0.929c0.327,0.305,0.648,0.615,0.981,0.913l0.994,0.902
				c0.665,0.601,1.337,1.189,2.015,1.775c1.356,1.169,2.738,2.312,4.135,3.433c0.699,0.56,1.402,1.115,2.109,1.667
				c0.707,0.55,1.421,1.092,2.135,1.632l0.47,0.356l-0.402,0.435c-0.374,0.402-0.835,0.74-1.343,0.969
				c-0.51,0.226-1.054,0.347-1.589,0.388c-1.073,0.069-2.101-0.134-3.064-0.432c-0.967-0.303-1.881-0.708-2.762-1.162
				c-0.88-0.457-1.725-0.965-2.545-1.504c-1.64-1.084-3.183-2.293-4.643-3.597c-0.729-0.654-1.437-1.333-2.115-2.046
				c-0.339-0.358-0.67-0.724-0.99-1.105c-0.32-0.384-0.628-0.779-0.913-1.223l1.072-0.661c0.305,0.478,0.67,0.938,1.058,1.387
				c0.388,0.448,0.802,0.883,1.23,1.306c0.857,0.847,1.769,1.65,2.704,2.426c0.938,0.774,1.901,1.519,2.887,2.232
				c0.987,0.712,1.995,1.4,3.022,2.019l1.417,0.854l-1.621,0.309c-1.367,0.26-2.774,0.25-4.127,0.025
				c-1.355-0.22-2.66-0.644-3.894-1.186c-2.471-1.094-4.678-2.635-6.687-4.357c-2.013-1.723-3.839-3.636-5.524-5.655
				c-1.681-2.025-3.226-4.158-4.57-6.428l-0.246-0.421c-0.083-0.138-0.166-0.283-0.249-0.41c-0.164-0.264-0.342-0.533-0.524-0.795
				c-0.363-0.525-0.748-1.043-1.142-1.558c-0.788-1.027-1.611-2.043-2.383-3.109c-0.771-1.065-1.501-2.182-2.041-3.411
				c-0.268-0.613-0.49-1.255-0.615-1.922c-0.061-0.333-0.11-0.67-0.121-1.01c-0.003-0.087-0.012-0.164-0.01-0.261l0.001-0.244
				l0.006-0.486c0.03-1.318,0.19-2.637,0.48-3.918c0.288-1.283,0.697-2.535,1.199-3.745c1.003-2.423,2.364-4.669,3.834-6.82
				l0.1,0.065c-1.38,2.204-2.664,4.478-3.582,6.894c-0.459,1.207-0.824,2.446-1.067,3.708c-0.243,1.263-0.369,2.537-0.371,3.817
				l0.005,0.488l0.002,0.244c0,0.064,0.01,0.15,0.015,0.226c0.017,0.309,0.069,0.615,0.131,0.92c0.129,0.608,0.348,1.2,0.611,1.772
				c0.535,1.145,1.261,2.207,2.04,3.233c0.78,1.027,1.62,2.019,2.44,3.041c0.41,0.512,0.816,1.03,1.203,1.569
				c0.193,0.27,0.38,0.54,0.564,0.828c0.095,0.145,0.175,0.281,0.261,0.421l0.252,0.419c1.342,2.194,2.892,4.273,4.567,6.235
				c1.68,1.96,3.496,3.806,5.472,5.451c0.988,0.823,2.016,1.593,3.089,2.288c1.071,0.696,2.188,1.32,3.349,1.822
				s2.37,0.883,3.601,1.075c1.229,0.191,2.479,0.191,3.685-0.044L61.46,96.31c-1.087-0.643-2.117-1.345-3.124-2.076
				c-1.008-0.731-1.992-1.493-2.952-2.285c-0.958-0.796-1.893-1.621-2.785-2.505c-0.887-0.888-1.75-1.812-2.458-2.93l1.071-0.661
				c0.473,0.742,1.1,1.465,1.737,2.151c0.645,0.688,1.325,1.353,2.029,1.991c1.408,1.275,2.902,2.466,4.476,3.525
				c0.788,0.527,1.598,1.021,2.43,1.46c0.833,0.438,1.69,0.823,2.569,1.104c0.875,0.28,1.782,0.458,2.646,0.404
				c0.43-0.028,0.842-0.121,1.22-0.283c0.374-0.167,0.708-0.406,0.994-0.707l0.068,0.79c-2.854-2.207-5.637-4.498-8.338-6.887
				c-0.674-0.6-1.344-1.203-2.006-1.814c-0.334-0.303-0.657-0.617-0.985-0.928c-0.33-0.308-0.648-0.629-0.971-0.942
				c-0.325-0.312-0.639-0.64-0.956-0.959c-0.321-0.317-0.625-0.651-0.939-0.979c-0.314-0.324-0.61-0.667-0.916-1.001
				c-0.302-0.337-0.592-0.687-0.888-1.028l0.515-0.52c1.319,1.086,2.514,2.282,3.69,3.488c1.175,1.206,2.322,2.432,3.501,3.62
				c1.181,1.188,2.386,2.35,3.692,3.385c0.659,0.521,1.326,0.99,2.052,1.419c0.723,0.443,1.426,0.893,2.153,1.306
				c0.726,0.415,1.467,0.803,2.234,1.113c0.764,0.303,1.573,0.554,2.369,0.532c0.397-0.015,0.774-0.11,1.091-0.335
				c0.312-0.222,0.583-0.521,0.7-0.874c0.125-0.354,0.103-0.749-0.007-1.128c-0.108-0.383-0.293-0.747-0.506-1.094
				c-0.873-1.391-2.136-2.538-3.258-3.776c-1.175-1.187-2.42-2.319-3.633-3.484c-2.427-2.327-4.847-4.68-6.984-7.307
				c-1.062-1.318-2.067-2.696-2.834-4.244c-0.38-0.772-0.697-1.593-0.847-2.478c-0.072-0.447-0.102-0.885-0.05-1.375
				c0.052-0.447,0.166-0.861,0.285-1.289c0.259-0.841,0.652-1.671,1.254-2.368c0.593-0.701,1.395-1.243,2.271-1.539
				c0.877-0.299,1.807-0.365,2.7-0.287c0.898,0.076,1.763,0.294,2.593,0.6l0.314,0.12l0.291,0.122
				c0.213,0.09,0.407,0.184,0.606,0.284c0.395,0.2,0.77,0.422,1.135,0.654c0.732,0.465,1.419,0.972,2.095,1.478
				c0.675,0.504,1.337,1.019,2.012,1.46c0.337,0.22,0.68,0.42,1.016,0.56c0.334,0.142,0.658,0.197,0.859,0.128l-0.097,0.043
				c0.32-0.183,0.488-0.432,0.525-0.806c0.031-0.373-0.068-0.815-0.236-1.239c-0.338-0.858-0.893-1.678-1.499-2.442
				c-0.612-0.768-1.295-1.488-2.017-2.168c-0.727-0.678-1.484-1.324-2.28-1.925c-1.588-1.203-3.301-2.253-5.111-3.085
				c-0.906-0.414-1.837-0.77-2.787-1.058c-0.949-0.282-1.926-0.497-2.899-0.594c-0.986-0.099-1.989-0.092-2.995-0.05
				c-1.006,0.043-2.016,0.124-3.031,0.198c-1.016,0.075-2.038,0.142-3.066,0.155c-1.027,0.009-2.063-0.03-3.088-0.194
				c-0.514-0.082-1.017-0.188-1.523-0.335c-0.242-0.071-0.491-0.151-0.732-0.238c-0.243-0.083-0.484-0.173-0.723-0.267
				c-0.956-0.371-1.885-0.806-2.783-1.291c-1.804-0.964-3.479-2.117-5.158-3.253L35.253,51.276z"/>
		</g>
	</g>
	<path d="M108.887,108.013c0,0-0.209,0.199-0.611,0.584c-0.204,0.19-0.455,0.43-0.755,0.713c-0.292,0.291-0.655,0.603-1.067,0.954
		c-1.63,1.429-4.13,3.419-7.645,5.455c-3.51,2.015-8.046,4.106-13.608,5.365c-2.773,0.638-5.792,1.06-8.995,1.177
		c-1.604,0.063-3.25,0.029-4.935-0.073c-0.422-0.012-0.842-0.069-1.268-0.106c-0.425-0.042-0.852-0.086-1.282-0.128
		c-0.854-0.124-1.718-0.253-2.587-0.402c-1.731-0.34-3.497-0.723-5.25-1.282c-0.438-0.138-0.879-0.277-1.321-0.417
		c-0.435-0.159-0.872-0.32-1.312-0.482c-0.886-0.304-1.745-0.699-2.625-1.067c-0.443-0.177-0.865-0.401-1.3-0.605
		c-0.432-0.211-0.869-0.415-1.297-0.641c-0.423-0.236-0.848-0.471-1.274-0.709l-0.641-0.356l-0.626-0.389
		c-0.417-0.26-0.835-0.521-1.256-0.781c-0.419-0.264-0.818-0.56-1.231-0.841l-0.615-0.429l-0.309-0.213l-0.298-0.229
		c-0.396-0.31-0.792-0.618-1.191-0.93c-0.405-0.303-0.782-0.643-1.166-0.975c-0.383-0.334-0.772-0.664-1.153-1.005
		c-0.369-0.354-0.738-0.711-1.111-1.065l-0.557-0.536c-0.009-0.008-0.066-0.062-0.084-0.084l-0.064-0.068l-0.13-0.139l-0.261-0.278
		c-0.347-0.371-0.693-0.744-1.042-1.118c-0.346-0.379-0.679-0.799-1.019-1.197c-0.698-0.798-1.308-1.65-1.948-2.49
		c-1.221-1.721-2.395-3.506-3.39-5.412c-0.533-0.933-0.968-1.923-1.441-2.896c-0.219-0.496-0.42-0.999-0.632-1.499l-0.313-0.752
		l-0.278-0.77c-3.021-8.183-3.822-17.437-2.009-26.369c1.792-8.924,6.205-17.479,12.781-24.16l1.239-1.205
		c0.401-0.408,0.846-0.793,1.29-1.18l0.663-0.583c0.22-0.196,0.442-0.388,0.673-0.566l1.374-1.089
		c0.459-0.362,0.947-0.687,1.419-1.031l0.714-0.51l0.737-0.475c0.495-0.312,0.979-0.642,1.483-0.938l1.523-0.872
		c2.062-1.104,4.182-2.102,6.375-2.9c2.197-0.785,4.436-1.45,6.71-1.914c2.275-0.456,4.572-0.781,6.873-0.911
		c0.573-0.05,1.15-0.043,1.723-0.067l0.86-0.025c0.288,0,0.575,0.007,0.86,0.012c0.574,0.015,1.146,0.011,1.717,0.041
		c0.571,0.037,1.14,0.074,1.709,0.112c4.542,0.378,8.984,1.371,13.13,2.941l0.778,0.288l0.765,0.322
		c0.507,0.219,1.017,0.426,1.519,0.652c0.987,0.484,1.987,0.932,2.927,1.481c1.924,1.026,3.72,2.227,5.446,3.475
		c0.842,0.651,1.699,1.277,2.488,1.977c0.398,0.345,0.806,0.674,1.191,1.028c0.38,0.36,0.76,0.718,1.138,1.076l0.283,0.268
		l0.14,0.135l0.07,0.067c0.02,0.017,0.083,0.084,0.087,0.089l0.522,0.55c0.347,0.366,0.693,0.73,1.039,1.095
		c0.339,0.384,0.676,0.783,1.012,1.172c0.336,0.393,0.678,0.777,0.979,1.183c0.31,0.4,0.618,0.798,0.926,1.198l0.229,0.298
		l0.215,0.308l0.429,0.617c0.28,0.411,0.577,0.811,0.842,1.229c0.262,0.421,0.522,0.84,0.781,1.256l0.386,0.626l0.359,0.64
		c0.235,0.426,0.471,0.851,0.705,1.273c0.225,0.428,0.43,0.864,0.64,1.294c0.205,0.434,0.433,0.854,0.608,1.296
		c0.366,0.877,0.762,1.733,1.064,2.615c0.161,0.437,0.322,0.873,0.479,1.306c0.141,0.441,0.278,0.88,0.415,1.315
		c0.557,1.744,0.938,3.501,1.275,5.223c0.647,3.452,0.81,6.828,0.697,10.008c-0.122,3.181-0.557,6.179-1.196,8.933
		c-1.273,5.522-3.38,10.027-5.414,13.511c-2.052,3.487-4.064,5.97-5.503,7.581c-0.354,0.41-0.669,0.77-0.962,1.062
		c-0.288,0.296-0.528,0.545-0.723,0.747c-0.389,0.401-0.59,0.609-0.59,0.609L108.887,108.013z M108.741,107.862
		c0,0,0.198-0.208,0.58-0.611c0.19-0.202,0.431-0.454,0.712-0.751c0.29-0.291,0.601-0.654,0.947-1.064
		c1.416-1.616,3.41-4.098,5.342-7.617c1.003-1.734,1.916-3.766,2.771-6.014c0.859-2.251,1.567-4.766,2.068-7.492
		c0.503-2.726,0.791-5.667,0.767-8.766c-0.022-3.094-0.365-6.34-1.082-9.646c-0.377-1.648-0.814-3.318-1.387-4.979
		c-0.142-0.417-0.28-0.833-0.425-1.254c-0.161-0.411-0.324-0.826-0.488-1.243c-0.308-0.84-0.705-1.65-1.071-2.482
		c-1.536-3.298-3.534-6.512-5.96-9.523c-0.293-0.389-0.612-0.74-0.93-1.104c-0.317-0.361-0.635-0.726-0.956-1.09
		c-0.348-0.36-0.697-0.723-1.05-1.086l-0.526-0.545l-0.523-0.491c-0.361-0.341-0.722-0.682-1.088-1.024
		c-0.365-0.339-0.757-0.654-1.135-0.983c-0.75-0.669-1.567-1.266-2.368-1.89c-1.648-1.19-3.357-2.34-5.189-3.319
		c-0.897-0.523-1.85-0.955-2.782-1.431c-0.476-0.22-0.959-0.423-1.441-0.638l-0.727-0.316l-0.739-0.283
		c-3.94-1.544-8.177-2.542-12.527-2.955c-0.543-0.042-1.089-0.084-1.636-0.126c-0.547-0.035-1.096-0.038-1.646-0.057
		c-0.274-0.008-0.549-0.02-0.824-0.022L74.6,29.075c-0.55,0.017-1.104,0.003-1.654,0.044c-2.211,0.098-4.417,0.395-6.614,0.792
		c-8.773,1.674-17.192,5.922-23.776,12.283c-1.597,1.583-3.152,3.282-4.537,5.083c-0.355,0.445-0.673,0.918-1.01,1.376l-0.501,0.691
		l-0.465,0.715c-0.305,0.479-0.628,0.949-0.919,1.438l-0.854,1.476c-1.074,2-2.048,4.055-2.822,6.182
		c-0.107,0.262-0.198,0.53-0.282,0.798l-0.265,0.805l-0.264,0.804c-0.082,0.271-0.151,0.544-0.227,0.814
		c-0.144,0.544-0.309,1.084-0.436,1.631c-0.123,0.549-0.246,1.098-0.368,1.646c-0.886,4.402-1.124,8.9-0.688,13.275
		c0.427,4.377,1.511,8.625,3.125,12.564l0.296,0.741l0.33,0.725c0.224,0.479,0.436,0.965,0.666,1.44
		c0.494,0.931,0.946,1.88,1.493,2.771c1.025,1.818,2.221,3.513,3.455,5.14c0.645,0.793,1.265,1.604,1.948,2.332
		c0.338,0.372,0.655,0.748,1.007,1.114c0.359,0.364,0.716,0.728,1.073,1.09l0.266,0.273l0.133,0.135l0.066,0.068
		c0.025,0.028,0.017,0.014,0.052,0.05l0.546,0.506c0.363,0.337,0.726,0.674,1.088,1.008c0.373,0.322,0.753,0.633,1.127,0.95
		c0.377,0.311,0.743,0.635,1.138,0.918c3.069,2.386,6.326,4.357,9.663,5.866c0.842,0.361,1.663,0.752,2.511,1.054
		c0.421,0.161,0.84,0.321,1.256,0.479c0.424,0.14,0.847,0.278,1.267,0.416c1.679,0.562,3.364,0.991,5.029,1.361
		c3.335,0.698,6.608,1.036,9.729,1.055c3.121,0.02,6.085-0.273,8.833-0.771c2.749-0.5,5.282-1.201,7.552-2.057
		c2.267-0.85,4.31-1.757,6.061-2.755c3.545-1.919,6.045-3.903,7.667-5.31c0.413-0.347,0.776-0.652,1.071-0.942
		c0.301-0.281,0.554-0.519,0.758-0.709C108.531,108.06,108.742,107.862,108.741,107.862L108.741,107.862z"/>
	<path fill="none" d="M124.307,73.073c1.27,27.23-19.617,50.309-46.65,51.551c-27.034,1.24-49.978-19.826-51.247-47.057
		c-1.27-27.23,19.617-50.312,46.65-51.552C100.093,24.775,123.037,45.842,124.307,73.073z"/>
	<text transform="matrix(0.0512 -0.9913 0.9986 0.0522 26.1846 77.3369)" font-family="'Times-Roman'" font-size="13.1768">N</text>
	<text transform="matrix(0.2063 -0.9707 0.978 0.2085 26.7305 68.2334)" font-family="'Times-Roman'" font-size="11.2956">E</text>
	<text transform="matrix(0.3673 -0.9218 0.9288 0.3706 27.9062 61.8076)" font-family="'Times-Roman'" font-size="11.2963">W</text>
	<text transform="matrix(0.4836 -0.8663 0.873 0.4877 31.9307 52.335)" font-family="'Times-Roman'" font-size="11.2976"> </text>
	<text transform="matrix(0.5655 -0.8152 0.8216 0.5701 33.0889 50.0195)" font-family="'Times-Roman'" font-size="13.1799">S</text>
	<text transform="matrix(0.6801 -0.7223 0.7281 0.6855 37.0146 44.2617)" font-family="'Times-Roman'" font-size="11.2971">A</text>
	<text transform="matrix(0.785 -0.6067 0.6117 0.7911 42.3311 38.5825)" font-family="'Times-Roman'" font-size="11.2978">N</text>
	<text transform="matrix(0.8681 -0.4806 0.4847 0.8747 48.4756 33.8325)" font-family="'Times-Roman'" font-size="11.2964">C</text>
	<text transform="matrix(0.9273 -0.3533 0.3565 0.9343 54.7607 30.3506)" font-family="'Times-Roman'" font-size="11.2962">T</text>
	<text transform="matrix(0.9695 -0.2128 0.215 0.9766 60.8589 27.957)" font-family="'Times-Roman'" font-size="11.2946">U</text>
	<text transform="matrix(0.9908 -0.0617 0.0629 0.998 68.4331 26.2881)" font-family="'Times-Roman'" font-size="11.2934">A</text>
	<text transform="matrix(0.9885 0.0933 -0.0933 0.9956 76.2109 25.8174)" font-family="'Times-Roman'" font-size="11.2921">R</text>
	<text transform="matrix(0.9628 0.2437 -0.2448 0.9696 83.3457 26.4414)" font-family="'Times-Roman'" font-size="11.2918">Y</text>
	<text transform="matrix(0.931 0.3462 -0.3481 0.9375 90.9521 28.501)" font-family="'Times-Roman'" font-size="11.2905"> </text>
	<text transform="matrix(0.8729 0.474 -0.4769 0.8789 93.4277 29.0679)" font-family="'Times-Roman'" font-size="13.1724">M</text>
	<text transform="matrix(0.7665 0.632 -0.6361 0.7716 103.2412 34.5498)" font-family="'Times-Roman'" font-size="11.2896">O</text>
	<text transform="matrix(0.6584 0.7439 -0.749 0.6626 109.2578 39.4824)" font-family="'Times-Roman'" font-size="11.2899">V</text>
	<text transform="matrix(0.5446 0.8309 -0.8366 0.5479 114.4014 45.3262)" font-family="'Times-Roman'" font-size="11.2901">E</text>
	<text transform="matrix(0.4022 0.9081 -0.9145 0.4045 118.1104 50.6992)" font-family="'Times-Roman'" font-size="11.2908">M</text>
	<text transform="matrix(0.2487 0.9614 -0.9683 0.2499 121.9229 59.5566)" font-family="'Times-Roman'" font-size="11.2918">E</text>
	<text transform="matrix(0.1084 0.9869 -0.9941 0.1085 123.625 65.874)" font-family="'Times-Roman'" font-size="11.2937">N</text>
	<text transform="matrix(-0.0325 0.9921 -0.9994 -0.0334 124.4541 73.6367)" font-family="'Times-Roman'" font-size="11.2943">T</text>
	<ellipse fill="none" cx="75.167" cy="87.346" rx="54.071" ry="46.78"/>
	<text transform="matrix(0.9682 0.6313 -0.5462 0.8377 38.2891 121.8828)" font-family="'Times-Roman'" font-size="12.4884">N</text>
	<text transform="matrix(1.0674 0.4433 -0.3835 0.9235 47.9229 127.9326)" font-family="'Times-Roman'" font-size="11.8928">E</text>
	<text transform="matrix(1.1334 0.2264 -0.1958 0.9806 56.5947 131.6592)" font-family="'Times-Roman'" font-size="11.8927">W</text>
	<text transform="matrix(1.1542 0.0613 -0.0531 0.9986 70.0869 133.9463)" font-family="'Times-Roman'" font-size="11.8934"> </text>
	<text transform="matrix(1.1533 -0.0759 0.0657 0.9978 74.1279 134.333)" font-family="'Times-Roman'" font-size="12.4874">Y</text>
	<text transform="matrix(1.1209 -0.282 0.244 0.9698 85.4746 133.4834)" font-family="'Times-Roman'" font-size="11.8935">O</text>
	<text transform="matrix(1.0534 -0.4756 0.4115 0.9114 95.9668 130.7324)" font-family="'Times-Roman'" font-size="11.8931">R</text>
	<text transform="matrix(0.9452 -0.6652 0.5755 0.8178 105.2051 126.5127)" font-family="'Times-Roman'" font-size="11.8932">K</text>
	<g>
		<g>
			<path d="M33.979,113.931c-1.043-1.237-2.088-2.468-3.125-3.715c-0.254-0.306-0.512-0.621-0.708-1.001
				c-0.525-1.019-1.205-0.904-1.968-0.586c-1.182,0.493-2.261,0.195-3.191-0.887c-0.082-0.096-0.124-0.262-0.222-0.479
				c1.534-0.151,2.974-0.189,4.331,0.705c0.03-0.083,0.06-0.166,0.091-0.249c-0.381-0.585-0.738-1.208-1.155-1.733
				c-0.118-0.15-0.433-0.106-0.62,0.001c-0.827,0.479-1.638,0.407-2.453,0.145c-0.328-0.106-0.661-0.194-0.974-0.354
				c-0.193-0.096-0.353-0.313-0.5-0.573c1.476-0.624,2.872-0.556,4.206,0.368c0.026-0.044,0.053-0.086,0.08-0.129
				c-0.345-0.565-0.686-1.137-1.04-1.69c-0.036-0.056-0.144-0.018-0.22-0.022c-1.132-0.077-2.265-0.141-3.395-0.244
				c-0.345-0.031-0.637-0.254-0.792-0.928c1.398-0.381,2.667,0.176,3.958,0.448c-0.202-0.858-0.944-1.4-1.624-1.478
				c-0.968-0.11-1.925-0.379-2.878-0.635c-0.208-0.055-0.376-0.342-0.563-0.52c0.021-0.086,0.043-0.167,0.066-0.249
				c0.688,0.095,1.387,0.129,2.063,0.309c0.691,0.181,1.358,0.508,2.016,0.765c-0.256-0.49-0.491-1.16-0.867-1.57
				c-0.248-0.273-0.696-0.2-1.059-0.238c-1.052-0.107-1.992-0.625-2.981-1.397c1.437-0.531,2.513,0.399,3.668,1.09
				c-0.199-1.261-0.739-2.334-1.687-1.995c-0.962,0.342-1.734-0.43-2.512-1.291c0.171-0.071,0.344-0.212,0.509-0.205
				c0.771,0.036,1.538,0.116,2.189,0.767c0.167,0.168,0.37,0.263,0.556,0.391c0.033-0.04,0.065-0.081,0.097-0.12
				c-0.255-0.662-0.476-1.36-0.782-1.963c-0.087-0.171-0.426-0.125-0.644-0.086c-0.867,0.156-1.52-0.451-2.173-1.074
				c-0.039-0.036-0.035-0.158-0.063-0.308c0.995-0.312,1.774,0.43,2.73,0.901c-0.252-0.662-0.438-1.177-0.647-1.668
				c-0.05-0.117-0.182-0.194-0.286-0.22c-0.508-0.124-1.026-0.19-1.528-0.349c-0.294-0.093-0.577-0.306-0.568-0.896
				c0.469-0.317,0.855-0.132,1.238,0.249c0.256,0.257,0.547,0.438,0.824,0.649c0.035-0.063,0.069-0.126,0.104-0.19
				c-0.105-0.356-0.185-0.737-0.325-1.06c-0.071-0.161-0.243-0.245-0.38-0.329c-0.483-0.293-0.979-0.545-1.45-0.872
				c-0.139-0.098-0.209-0.393-0.367-0.709c0.881-0.238,1.19,1.027,1.901,1.096c-0.058-1.577-1.159-1.729-1.644-2.757
				c0.18,0.093,0.368,0.164,0.539,0.283c0.171,0.117,0.326,0.278,0.498,0.432c0.137-1.086-0.478-1.576-0.809-2.271
				c0.037-0.037,0.074-0.073,0.112-0.108c0.134,0.203,0.267,0.407,0.466,0.711c-0.044-0.745-0.082-1.378-0.119-2.012
				c0.038-0.01,0.076-0.018,0.113-0.027c0.069,0.562,0.139,1.121,0.209,1.683c0.031,0.004,0.061,0.009,0.091,0.014
				c0.119-0.469,0.236-0.938,0.354-1.405c0.042,0.017,0.085,0.033,0.127,0.051c-0.092,0.422-0.126,0.898-0.292,1.257
				c-0.316,0.688-0.148,1.235,0.086,1.998c0.198-0.942,0.36-1.719,0.522-2.495c0.041-0.005,0.082-0.008,0.122-0.013
				c0.006,0.32,0.061,0.654,0.008,0.959c-0.113,0.669-0.33,1.314-0.406,1.987c-0.045,0.396,0.099,0.82,0.159,1.231
				c0.065-0.01,0.13-0.021,0.197-0.03c0.191-0.962,0.381-1.924,0.572-2.886c0.015,0,0.031,0,0.046,0
				c-0.036,0.569-0.057,1.141-0.114,1.709c-0.03,0.304-0.086,0.623-0.186,0.898c-0.328,0.918-0.024,1.604,0.324,2.43
				c-0.013-1.496,0.373-2.688,0.926-3.841c0.006,0.177,0.041,0.364,0.012,0.532c-0.189,1.062-0.349,2.142-0.604,3.177
				c-0.143,0.579-0.102,1.022,0.096,1.486c0.128,0.306,0.244,0.621,0.432,1.106c0.184-1.646,0.074-3.188,0.81-4.437
				c0.322,0.394,0.365,1.275,0.106,2.163c-0.151,0.519-0.262,1.062-0.449,1.556c-0.419,1.104-0.109,1.895,0.399,2.659
				c0.284-1.626,0.562-3.223,0.841-4.819c0.059-0.001,0.118-0.003,0.177-0.005c0.034,0.205,0.114,0.415,0.093,0.609
				c-0.111,1.012-0.233,2.02-0.382,3.022c-0.087,0.589-0.252,1.158-0.334,1.746c-0.028,0.191,0.072,0.436,0.152,0.62
				c0.218,0.51,0.457,0.998,0.723,1.574c-0.003-2.136,0.136-4.143,1.019-5.896c0.05,0.007,0.101,0.015,0.152,0.022
				c-0.041,0.646-0.045,1.299-0.131,1.937c-0.2,1.489-0.512,2.963-0.625,4.457c-0.042,0.566,0.344,1.169,0.615,1.724
				c0.074-2.513,0.535-4.802,1.504-6.885c0.049,0.007,0.098,0.013,0.147,0.018c-0.005,0.215,0.017,0.438-0.02,0.644
				c-0.283,1.562-0.594,3.113-0.862,4.678c-0.119,0.693-0.231,1.421-0.209,2.112c0.016,0.46,0.275,0.884,0.509,1.291
				c0.022-2.856,0.675-5.409,1.695-7.822c0.204,0.477,0.202,1.431-0.041,2.402c-0.343,1.375-0.719,2.734-1.056,4.114
				c-0.119,0.485-0.178,1.001-0.233,1.507c-0.02,0.173,0.021,0.397,0.091,0.534c0.22,0.435,0.468,0.841,0.748,1.329
				c0.154-1.515,0.209-2.97,0.47-4.358c0.267-1.426,0.891-2.657,1.534-3.829c0.043,0.011,0.087,0.02,0.131,0.032
				c-0.036,0.569,0.002,1.172-0.122,1.704c-0.42,1.787-0.915,3.54-1.344,5.322c-0.136,0.566-0.164,1.179-0.223,1.773
				c-0.012,0.109,0.042,0.258,0.096,0.344c0.263,0.407,0.535,0.803,0.888,1.323c-0.108-2.903,0.693-5.328,1.531-7.729
				c0.118-0.337,0.392-0.572,0.592-0.854c0.028,0.385,0.142,0.8,0.069,1.146c-0.415,1.952-0.869,3.888-1.322,5.825
				c-0.068,0.294-0.194,0.566-0.304,0.84c-0.273,0.682-0.226,1.341,0.153,1.864c0.897,1.245,1.81,2.467,2.693,3.734
				c0.452,0.647,0.85,1.369,1.272,2.058C34.163,113.941,34.07,113.936,33.979,113.931z"/>
		</g>
		<g>
			<path d="M116.356,113.931c1.042-1.237,2.087-2.468,3.124-3.715c0.255-0.306,0.512-0.621,0.709-1.001
				c0.523-1.019,1.203-0.904,1.967-0.586c1.184,0.493,2.26,0.195,3.19-0.887c0.083-0.096,0.123-0.262,0.225-0.479
				c-1.537-0.151-2.975-0.189-4.332,0.705c-0.029-0.083-0.062-0.166-0.091-0.249c0.379-0.585,0.737-1.208,1.155-1.733
				c0.119-0.15,0.435-0.106,0.62,0.001c0.825,0.479,1.637,0.407,2.452,0.145c0.326-0.106,0.66-0.194,0.974-0.354
				c0.192-0.096,0.354-0.313,0.5-0.573c-1.475-0.624-2.871-0.556-4.207,0.368c-0.025-0.044-0.051-0.086-0.08-0.129
				c0.347-0.565,0.686-1.137,1.04-1.69c0.036-0.056,0.144-0.018,0.22-0.022c1.133-0.077,2.266-0.141,3.396-0.244
				c0.345-0.031,0.639-0.254,0.791-0.928c-1.397-0.381-2.666,0.176-3.955,0.448c0.2-0.858,0.942-1.4,1.621-1.478
				c0.97-0.11,1.927-0.379,2.88-0.635c0.205-0.055,0.375-0.342,0.562-0.52c-0.021-0.086-0.044-0.167-0.065-0.249
				c-0.688,0.095-1.387,0.129-2.064,0.309c-0.689,0.181-1.358,0.508-2.016,0.765c0.258-0.49,0.492-1.16,0.867-1.57
				c0.25-0.273,0.695-0.2,1.06-0.238c1.052-0.107,1.99-0.625,2.979-1.397c-1.438-0.531-2.513,0.399-3.666,1.09
				c0.196-1.261,0.738-2.334,1.685-1.995c0.962,0.342,1.734-0.43,2.514-1.291c-0.171-0.071-0.345-0.212-0.511-0.205
				c-0.77,0.036-1.535,0.116-2.189,0.767c-0.166,0.168-0.369,0.263-0.555,0.391c-0.033-0.04-0.064-0.081-0.098-0.12
				c0.254-0.662,0.477-1.36,0.784-1.963c0.085-0.171,0.425-0.125,0.642-0.086c0.867,0.156,1.521-0.451,2.173-1.074
				c0.038-0.036,0.034-0.158,0.063-0.308c-0.993-0.312-1.774,0.43-2.729,0.901c0.253-0.662,0.438-1.177,0.648-1.668
				c0.049-0.117,0.181-0.194,0.284-0.22c0.507-0.124,1.025-0.19,1.527-0.349c0.294-0.093,0.577-0.306,0.57-0.896
				c-0.469-0.317-0.857-0.132-1.239,0.249c-0.255,0.257-0.547,0.438-0.824,0.649c-0.034-0.063-0.07-0.126-0.104-0.19
				c0.104-0.356,0.186-0.737,0.324-1.06c0.071-0.161,0.242-0.245,0.38-0.329c0.483-0.293,0.98-0.545,1.449-0.872
				c0.142-0.098,0.211-0.393,0.366-0.709c-0.879-0.238-1.188,1.027-1.897,1.096c0.058-1.577,1.157-1.729,1.644-2.757
				c-0.181,0.093-0.369,0.164-0.54,0.283c-0.171,0.117-0.324,0.278-0.498,0.432c-0.137-1.086,0.479-1.576,0.81-2.271
				c-0.038-0.037-0.074-0.073-0.112-0.108c-0.133,0.203-0.268,0.407-0.465,0.711c0.044-0.745,0.083-1.378,0.119-2.012
				c-0.036-0.01-0.075-0.018-0.114-0.027c-0.07,0.562-0.14,1.121-0.21,1.683c-0.029,0.004-0.062,0.009-0.091,0.014
				c-0.117-0.469-0.235-0.938-0.354-1.405c-0.042,0.017-0.086,0.033-0.127,0.051c0.093,0.422,0.127,0.898,0.291,1.257
				c0.316,0.688,0.149,1.235-0.085,1.998c-0.196-0.942-0.36-1.719-0.522-2.495c-0.04-0.005-0.082-0.008-0.122-0.013
				c-0.006,0.32-0.058,0.654-0.007,0.959c0.113,0.669,0.33,1.314,0.406,1.987c0.045,0.396-0.101,0.82-0.159,1.231
				c-0.065-0.01-0.132-0.021-0.197-0.03c-0.19-0.962-0.381-1.924-0.571-2.886c-0.018,0-0.032,0-0.047,0
				c0.034,0.569,0.058,1.141,0.115,1.709c0.029,0.304,0.085,0.623,0.184,0.898c0.33,0.918,0.023,1.604-0.323,2.43
				c0.013-1.496-0.373-2.688-0.925-3.841c-0.008,0.177-0.042,0.364-0.014,0.532c0.189,1.062,0.351,2.142,0.604,3.177
				c0.144,0.579,0.101,1.022-0.096,1.486c-0.128,0.306-0.244,0.621-0.432,1.106c-0.185-1.646-0.073-3.188-0.811-4.437
				c-0.321,0.394-0.364,1.275-0.106,2.163c0.152,0.519,0.263,1.062,0.449,1.556c0.42,1.104,0.108,1.895-0.399,2.659
				c-0.284-1.626-0.562-3.223-0.841-4.819c-0.06-0.001-0.119-0.003-0.18-0.005c-0.031,0.205-0.112,0.415-0.09,0.609
				c0.109,1.012,0.231,2.02,0.381,3.022c0.088,0.589,0.254,1.158,0.337,1.746c0.025,0.191-0.073,0.436-0.154,0.62
				c-0.218,0.51-0.456,0.998-0.724,1.574c0.004-2.136-0.136-4.143-1.02-5.896c-0.05,0.007-0.1,0.015-0.151,0.022
				c0.042,0.646,0.046,1.299,0.13,1.937c0.2,1.489,0.514,2.963,0.626,4.457c0.043,0.566-0.343,1.169-0.615,1.724
				c-0.074-2.513-0.534-4.802-1.504-6.885c-0.049,0.007-0.098,0.013-0.147,0.018c0.005,0.215-0.019,0.438,0.02,0.644
				c0.283,1.562,0.593,3.113,0.861,4.678c0.12,0.693,0.232,1.421,0.21,2.112c-0.016,0.46-0.274,0.884-0.509,1.291
				c-0.021-2.856-0.674-5.409-1.694-7.822c-0.204,0.477-0.201,1.431,0.04,2.402c0.344,1.375,0.719,2.734,1.058,4.114
				c0.117,0.485,0.176,1.001,0.231,1.507c0.019,0.173-0.021,0.397-0.09,0.534c-0.223,0.435-0.469,0.841-0.747,1.329
				c-0.156-1.515-0.21-2.97-0.472-4.358c-0.269-1.426-0.891-2.657-1.534-3.829c-0.043,0.011-0.087,0.02-0.131,0.032
				c0.037,0.569-0.002,1.172,0.122,1.704c0.42,1.787,0.916,3.54,1.343,5.322c0.137,0.566,0.165,1.179,0.225,1.773
				c0.013,0.109-0.041,0.258-0.098,0.344c-0.261,0.407-0.534,0.803-0.888,1.323c0.109-2.903-0.691-5.328-1.53-7.729
				c-0.118-0.337-0.391-0.572-0.592-0.854c-0.027,0.385-0.142,0.8-0.068,1.146c0.412,1.952,0.869,3.888,1.323,5.825
				c0.066,0.294,0.192,0.566,0.303,0.84c0.273,0.682,0.226,1.341-0.151,1.864c-0.898,1.245-1.812,2.467-2.694,3.734
				c-0.45,0.647-0.851,1.369-1.271,2.058C116.172,113.941,116.265,113.936,116.356,113.931z"/>
		</g>
	</g>
</g>
</svg>
